<svg xmlns="http://www.w3.org/2000/svg" xmlns:xlink="http://www.w3.org/1999/xlink" width="860" zoomAndPan="magnify" viewBox="0 0 645 174.749997" height="233" preserveAspectRatio="xMidYMid meet" version="1.0"><defs><clipPath id="954f317595"><path d="M 0.460938 0 L 644.539062 0 L 644.539062 173.902344 L 0.460938 173.902344 Z M 0.460938 0 " clip-rule="nonzero"/></clipPath><clipPath id="7784326fbb"><path d="M 75.355469 0 L 569.644531 0 C 611.007812 0 644.539062 33.53125 644.539062 74.894531 L 644.539062 99.007812 C 644.539062 140.371094 611.007812 173.902344 569.644531 173.902344 L 75.355469 173.902344 C 33.992188 173.902344 0.460938 140.371094 0.460938 99.007812 L 0.460938 74.894531 C 0.460938 33.53125 33.992188 0 75.355469 0 Z M 75.355469 0 " clip-rule="nonzero"/></clipPath></defs><g clip-path="url(#954f317595)"><g clip-path="url(#7784326fbb)"><path fill="#ffffff" d="M 0.460938 0 L 644.4375 0 L 644.4375 173.902344 L 0.460938 173.902344 Z M 0.460938 0 " fill-opacity="1" fill-rule="nonzero"/></g></g><path fill="#ea4335" d="M 139.394531 101.046875 L 144.867188 113.882812 L 154.296875 126.851562 C 155.753906 126.011719 156.996094 124.792969 157.871094 123.277344 L 167.890625 105.929688 C 168.761719 104.421875 169.195312 102.734375 169.195312 101.046875 L 153.808594 99.421875 Z M 139.394531 101.046875 " fill-opacity="1" fill-rule="nonzero"/><path fill="#00832d" d="M 105.085938 46.300781 C 105.101562 46.289062 105.113281 46.273438 105.128906 46.261719 C 105.113281 46.273438 105.101562 46.289062 105.085938 46.300781 Z M 106.035156 45.5 C 106.019531 45.515625 105.996094 45.523438 105.980469 45.535156 C 105.996094 45.523438 106.019531 45.515625 106.035156 45.5 Z M 104.292969 47.164062 C 104.300781 47.15625 104.304688 47.152344 104.308594 47.148438 C 104.304688 47.152344 104.300781 47.15625 104.292969 47.164062 Z M 136.765625 44.878906 C 135.308594 44.039062 133.632812 43.574219 131.886719 43.574219 L 111.851562 43.574219 C 110.117188 43.574219 108.425781 44.050781 106.972656 44.878906 L 112.640625 58.0625 L 121.828125 70.609375 L 121.867188 70.683594 L 131.125 58 Z M 136.765625 44.878906 " fill-opacity="1" fill-rule="nonzero"/><path fill="#0066da" d="M 104.335938 101.046875 L 88.976562 98.878906 L 74.542969 101.046875 C 74.542969 102.730469 74.976562 104.410156 75.84375 105.921875 L 85.863281 123.277344 C 86.738281 124.785156 87.980469 126.007812 89.4375 126.851562 L 98.703125 114.554688 Z M 104.335938 101.046875 " fill-opacity="1" fill-rule="nonzero"/><path fill="#ffba00" d="M 154.113281 72.3125 L 140.339844 48.453125 C 139.46875 46.941406 138.226562 45.71875 136.769531 44.878906 L 121.867188 70.683594 L 139.398438 101.046875 L 169.191406 101.046875 C 169.191406 99.363281 168.757812 97.679688 167.886719 96.167969 Z M 154.113281 72.3125 " fill-opacity="1" fill-rule="nonzero"/><path fill="#2684fc" d="M 139.394531 101.046875 L 104.335938 101.046875 L 89.4375 126.851562 C 90.894531 127.691406 92.570312 128.160156 94.316406 128.160156 L 149.410156 128.160156 C 151.15625 128.160156 152.832031 127.691406 154.289062 126.851562 Z M 139.394531 101.046875 " fill-opacity="1" fill-rule="nonzero"/><path fill="#2684fc" d="M 139.394531 101.046875 L 104.335938 101.046875 L 89.4375 126.851562 C 90.894531 127.691406 92.570312 128.160156 94.316406 128.160156 L 149.410156 128.160156 C 151.15625 128.160156 152.832031 127.691406 154.289062 126.851562 Z M 139.394531 101.046875 " fill-opacity="1" fill-rule="nonzero"/><path fill="#00ac47" d="M 121.867188 70.683594 L 106.972656 44.878906 C 105.515625 45.71875 104.277344 46.933594 103.40625 48.441406 L 75.84375 96.183594 C 74.976562 97.691406 74.542969 99.371094 74.542969 101.046875 L 104.335938 101.046875 Z M 121.867188 70.683594 " fill-opacity="1" fill-rule="nonzero"/><path fill="#000000" d="M 223.203125 83.953125 L 245.40625 83.953125 C 245.492188 84.507812 245.574219 85.101562 245.660156 85.734375 C 245.746094 86.328125 245.789062 86.964844 245.789062 87.644531 C 245.789062 90.359375 245.363281 93.050781 244.515625 95.722656 C 243.667969 98.394531 242.226562 100.769531 240.1875 102.851562 C 238.109375 105.011719 235.671875 106.6875 232.871094 107.875 C 230.074219 109.0625 226.871094 109.65625 223.265625 109.65625 C 220 109.65625 216.90625 109.0625 213.976562 107.875 C 211.09375 106.6875 208.570312 105.035156 206.40625 102.914062 C 204.242188 100.792969 202.527344 98.289062 201.253906 95.40625 C 200.023438 92.480469 199.410156 89.296875 199.410156 85.863281 C 199.410156 82.429688 200.023438 79.269531 201.253906 76.382812 C 202.527344 73.457031 204.242188 70.933594 206.40625 68.8125 C 208.570312 66.691406 211.09375 65.039062 213.976562 63.851562 C 216.90625 62.664062 220 62.070312 223.265625 62.070312 C 226.746094 62.070312 229.945312 62.683594 232.871094 63.914062 C 235.84375 65.144531 238.324219 66.863281 240.316406 69.066406 L 235.289062 74.09375 C 233.804688 72.441406 232.046875 71.167969 230.011719 70.277344 C 228.015625 69.386719 225.746094 68.941406 223.203125 68.941406 C 221.039062 68.941406 218.960938 69.34375 216.96875 70.148438 C 214.976562 70.957031 213.214844 72.101562 211.6875 73.585938 C 210.160156 75.027344 208.953125 76.785156 208.0625 78.863281 C 207.171875 80.945312 206.726562 83.277344 206.726562 85.863281 C 206.726562 88.449219 207.171875 90.78125 208.0625 92.863281 C 208.953125 94.941406 210.160156 96.722656 211.6875 98.207031 C 213.214844 99.648438 214.976562 100.769531 216.96875 101.578125 C 218.960938 102.382812 221.0625 102.785156 223.265625 102.785156 C 226.191406 102.785156 228.546875 102.339844 230.328125 101.449219 C 232.152344 100.558594 233.679688 99.519531 234.910156 98.332031 C 235.800781 97.484375 236.585938 96.382812 237.261719 95.023438 C 237.941406 93.625 238.386719 92.097656 238.597656 90.445312 L 223.203125 90.445312 Z M 266.304688 76.449219 C 268.679688 76.449219 270.863281 76.871094 272.859375 77.71875 C 274.851562 78.527344 276.570312 79.671875 278.011719 81.15625 C 279.453125 82.640625 280.578125 84.398438 281.382812 86.4375 C 282.1875 88.472656 282.59375 90.675781 282.59375 93.050781 C 282.59375 95.425781 282.1875 97.632812 281.382812 99.667969 C 280.578125 101.703125 279.453125 103.464844 278.011719 104.949219 C 276.570312 106.433594 274.851562 107.601562 272.859375 108.449219 C 270.863281 109.253906 268.679688 109.65625 266.304688 109.65625 C 263.929688 109.65625 261.746094 109.253906 259.753906 108.449219 C 257.757812 107.601562 256.042969 106.433594 254.597656 104.949219 C 253.15625 103.464844 252.035156 101.703125 251.226562 99.667969 C 250.421875 97.632812 250.019531 95.425781 250.019531 93.050781 C 250.019531 90.675781 250.421875 88.472656 251.226562 86.4375 C 252.035156 84.398438 253.15625 82.640625 254.597656 81.15625 C 256.042969 79.671875 257.757812 78.527344 259.753906 77.71875 C 261.746094 76.871094 263.929688 76.449219 266.304688 76.449219 Z M 266.304688 103.105469 C 267.492188 103.105469 268.636719 102.871094 269.742188 102.40625 C 270.84375 101.9375 271.820312 101.28125 272.667969 100.433594 C 273.558594 99.585938 274.257812 98.542969 274.765625 97.316406 C 275.277344 96.042969 275.53125 94.621094 275.53125 93.050781 C 275.53125 91.484375 275.277344 90.082031 274.765625 88.851562 C 274.257812 87.582031 273.558594 86.519531 272.667969 85.671875 C 271.820312 84.824219 270.84375 84.167969 269.742188 83.699219 C 268.636719 83.234375 267.492188 83 266.304688 83 C 265.117188 83 263.972656 83.234375 262.871094 83.699219 C 261.765625 84.167969 260.769531 84.824219 259.878906 85.671875 C 259.03125 86.519531 258.351562 87.582031 257.84375 88.851562 C 257.335938 90.082031 257.082031 91.484375 257.082031 93.050781 C 257.082031 94.621094 257.335938 96.042969 257.84375 97.316406 C 258.351562 98.542969 259.03125 99.585938 259.878906 100.433594 C 260.769531 101.28125 261.765625 101.9375 262.871094 102.40625 C 263.972656 102.871094 265.117188 103.105469 266.304688 103.105469 Z M 302.699219 76.449219 C 305.078125 76.449219 307.261719 76.871094 309.253906 77.71875 C 311.246094 78.527344 312.964844 79.671875 314.40625 81.15625 C 315.847656 82.640625 316.972656 84.398438 317.777344 86.4375 C 318.585938 88.472656 318.988281 90.675781 318.988281 93.050781 C 318.988281 95.425781 318.585938 97.632812 317.777344 99.667969 C 316.972656 101.703125 315.847656 103.464844 314.40625 104.949219 C 312.964844 106.433594 311.246094 107.601562 309.253906 108.449219 C 307.261719 109.253906 305.078125 109.65625 302.699219 109.65625 C 300.324219 109.65625 298.140625 109.253906 296.148438 108.449219 C 294.15625 107.601562 292.4375 106.433594 290.996094 104.949219 C 289.554688 103.464844 288.429688 101.703125 287.621094 99.667969 C 286.816406 97.632812 286.414062 95.425781 286.414062 93.050781 C 286.414062 90.675781 286.816406 88.472656 287.621094 86.4375 C 288.429688 84.398438 289.554688 82.640625 290.996094 81.15625 C 292.4375 79.671875 294.15625 78.527344 296.148438 77.71875 C 298.140625 76.871094 300.324219 76.449219 302.699219 76.449219 Z M 302.699219 103.105469 C 303.886719 103.105469 305.035156 102.871094 306.136719 102.40625 C 307.238281 101.9375 308.214844 101.28125 309.0625 100.433594 C 309.953125 99.585938 310.652344 98.542969 311.164062 97.316406 C 311.671875 96.042969 311.925781 94.621094 311.925781 93.050781 C 311.925781 91.484375 311.671875 90.082031 311.164062 88.851562 C 310.652344 87.582031 309.953125 86.519531 309.0625 85.671875 C 308.214844 84.824219 307.238281 84.167969 306.136719 83.699219 C 305.035156 83.234375 303.886719 83 302.699219 83 C 301.511719 83 300.367188 83.234375 299.265625 83.699219 C 298.164062 84.167969 297.164062 84.824219 296.273438 85.671875 C 295.425781 86.519531 294.75 87.582031 294.238281 88.851562 C 293.730469 90.082031 293.476562 91.484375 293.476562 93.050781 C 293.476562 94.621094 293.730469 96.042969 294.238281 97.316406 C 294.75 98.542969 295.425781 99.585938 296.273438 100.433594 C 297.164062 101.28125 298.164062 101.9375 299.265625 102.40625 C 300.367188 102.871094 301.511719 103.105469 302.699219 103.105469 Z M 338.714844 123.398438 C 336.550781 123.398438 334.621094 123.101562 332.925781 122.507812 C 331.269531 121.957031 329.828125 121.234375 328.597656 120.34375 C 327.371094 119.453125 326.351562 118.457031 325.546875 117.355469 C 324.78125 116.253906 324.210938 115.191406 323.828125 114.175781 L 330.570312 111.4375 C 331.164062 113.09375 332.183594 114.429688 333.625 115.445312 C 335.066406 116.507812 336.765625 117.035156 338.714844 117.035156 C 341.640625 117.035156 343.910156 116.144531 345.523438 114.363281 C 347.175781 112.582031 348.003906 110.125 348.003906 106.984375 L 348.003906 104.441406 L 347.621094 104.441406 C 346.644531 105.839844 345.289062 107.007812 343.550781 107.9375 C 341.851562 108.871094 339.859375 109.339844 337.570312 109.339844 C 335.660156 109.339844 333.816406 108.9375 332.035156 108.128906 C 330.253906 107.324219 328.664062 106.199219 327.261719 104.757812 C 325.90625 103.316406 324.824219 101.578125 324.019531 99.542969 C 323.210938 97.503906 322.808594 95.277344 322.808594 92.863281 C 322.808594 90.445312 323.210938 88.238281 324.019531 86.246094 C 324.824219 84.210938 325.90625 82.46875 327.261719 81.027344 C 328.664062 79.585938 330.253906 78.460938 332.035156 77.65625 C 333.816406 76.851562 335.660156 76.449219 337.570312 76.449219 C 339.859375 76.449219 341.851562 76.914062 343.550781 77.847656 C 345.289062 78.78125 346.644531 79.945312 347.621094 81.347656 L 348.003906 81.347656 L 348.003906 77.464844 L 354.8125 77.464844 L 354.8125 106.859375 C 354.8125 109.53125 354.386719 111.882812 353.539062 113.917969 C 352.734375 115.996094 351.609375 117.738281 350.167969 119.136719 C 348.765625 120.535156 347.070312 121.597656 345.078125 122.316406 C 343.125 123.039062 341.003906 123.398438 338.714844 123.398438 Z M 338.96875 102.785156 C 340.113281 102.785156 341.238281 102.574219 342.339844 102.148438 C 343.445312 101.726562 344.398438 101.089844 345.203125 100.242188 C 346.050781 99.394531 346.730469 98.355469 347.238281 97.125 C 347.75 95.894531 348.003906 94.472656 348.003906 92.863281 C 348.003906 91.292969 347.75 89.890625 347.238281 88.664062 C 346.730469 87.390625 346.050781 86.351562 345.203125 85.546875 C 344.398438 84.695312 343.445312 84.0625 342.339844 83.636719 C 341.238281 83.171875 340.113281 82.9375 338.96875 82.9375 C 337.78125 82.9375 336.636719 83.171875 335.535156 83.636719 C 334.472656 84.0625 333.519531 84.695312 332.671875 85.546875 C 331.824219 86.394531 331.144531 87.433594 330.636719 88.664062 C 330.125 89.890625 329.871094 91.292969 329.871094 92.863281 C 329.871094 94.429688 330.125 95.832031 330.636719 97.058594 C 331.144531 98.289062 331.824219 99.328125 332.671875 100.179688 C 333.519531 101.027344 334.472656 101.683594 335.535156 102.148438 C 336.636719 102.574219 337.78125 102.785156 338.96875 102.785156 Z M 362.167969 108.640625 L 362.167969 63.085938 L 369.226562 63.085938 L 369.226562 108.640625 Z M 405.140625 101.195312 C 403.828125 103.613281 401.960938 105.628906 399.542969 107.238281 C 397.125 108.851562 394.160156 109.65625 390.636719 109.65625 C 388.304688 109.65625 386.140625 109.253906 384.148438 108.449219 C 382.199219 107.601562 380.5 106.433594 379.058594 104.949219 C 377.617188 103.464844 376.492188 101.726562 375.683594 99.734375 C 374.882812 97.695312 374.476562 95.46875 374.476562 93.050781 C 374.476562 90.804688 374.859375 88.683594 375.621094 86.691406 C 376.386719 84.65625 377.445312 82.894531 378.800781 81.410156 C 380.203125 79.882812 381.878906 78.675781 383.828125 77.785156 C 385.78125 76.894531 387.945312 76.449219 390.316406 76.449219 C 392.734375 76.449219 394.878906 76.851562 396.742188 77.65625 C 398.652344 78.460938 400.265625 79.585938 401.578125 81.027344 C 402.894531 82.46875 403.890625 84.210938 404.570312 86.246094 C 405.292969 88.28125 405.648438 90.507812 405.648438 92.925781 C 405.648438 93.136719 405.648438 93.328125 405.648438 93.496094 C 405.609375 93.710938 405.585938 93.902344 405.585938 94.070312 C 405.546875 94.238281 405.523438 94.410156 405.523438 94.578125 L 381.539062 94.578125 C 381.664062 96.0625 382.027344 97.355469 382.621094 98.460938 C 383.214844 99.5625 383.9375 100.476562 384.78125 101.195312 C 385.671875 101.917969 386.652344 102.445312 387.710938 102.785156 C 388.769531 103.125 389.808594 103.296875 390.828125 103.296875 C 392.863281 103.296875 394.539062 102.808594 395.851562 101.832031 C 397.167969 100.855469 398.25 99.648438 399.097656 98.207031 Z M 398.589844 89.171875 C 398.503906 88.535156 398.292969 87.835938 397.953125 87.070312 C 397.65625 86.265625 397.167969 85.546875 396.488281 84.910156 C 395.851562 84.230469 395.003906 83.65625 393.945312 83.191406 C 392.925781 82.726562 391.675781 82.492188 390.191406 82.492188 C 388.15625 82.492188 386.398438 83.105469 384.910156 84.335938 C 383.46875 85.523438 382.492188 87.136719 381.984375 89.171875 Z M 426.460938 108.640625 L 426.460938 63.085938 L 440.394531 63.085938 C 447.347656 63.085938 452.925781 65.1875 457.125 69.386719 C 461.363281 73.585938 463.488281 79.078125 463.488281 85.863281 C 463.488281 92.691406 461.363281 98.207031 457.125 102.40625 C 452.925781 106.5625 447.347656 108.640625 440.394531 108.640625 Z M 432.3125 68.6875 L 432.3125 103.039062 L 440.394531 103.039062 C 445.691406 103.039062 449.871094 101.535156 452.925781 98.523438 C 455.980469 95.46875 457.507812 91.25 457.507812 85.863281 C 457.507812 80.519531 455.980469 76.320312 452.925781 73.265625 C 449.871094 70.210938 445.691406 68.6875 440.394531 68.6875 Z M 474.277344 108.640625 L 468.421875 108.640625 L 468.421875 77.464844 L 474.023438 77.464844 L 474.023438 82.554688 L 474.277344 82.554688 C 474.867188 80.902344 476.078125 79.5 477.902344 78.355469 C 479.769531 77.167969 481.59375 76.574219 483.375 76.574219 C 485.066406 76.574219 486.511719 76.828125 487.699219 77.339844 L 485.917969 83 C 485.195312 82.703125 484.050781 82.554688 482.484375 82.554688 C 480.277344 82.554688 478.347656 83.445312 476.695312 85.226562 C 475.078125 87.007812 474.277344 89.085938 474.277344 91.460938 Z M 499.34375 66.714844 C 499.34375 67.859375 498.9375 68.835938 498.132812 69.640625 C 497.328125 70.445312 496.351562 70.847656 495.207031 70.847656 C 494.0625 70.847656 493.085938 70.445312 492.28125 69.640625 C 491.472656 68.835938 491.070312 67.859375 491.070312 66.714844 C 491.070312 65.570312 491.472656 64.59375 492.28125 63.789062 C 493.085938 62.980469 494.0625 62.578125 495.207031 62.578125 C 496.351562 62.578125 497.328125 62.980469 498.132812 63.789062 C 498.9375 64.59375 499.34375 65.570312 499.34375 66.714844 Z M 498.132812 77.464844 L 498.132812 108.640625 L 492.28125 108.640625 L 492.28125 77.464844 Z M 521.125 108.640625 L 515.273438 108.640625 L 502.675781 77.464844 L 509.039062 77.464844 L 518.199219 101.640625 L 518.328125 101.640625 L 527.617188 77.464844 L 533.851562 77.464844 Z M 550.972656 109.65625 C 546.390625 109.65625 542.617188 108.085938 539.648438 104.949219 C 536.679688 101.8125 535.195312 97.84375 535.195312 93.050781 C 535.195312 88.300781 536.636719 84.359375 539.519531 81.21875 C 542.40625 78.039062 546.09375 76.449219 550.589844 76.449219 C 555.214844 76.449219 558.882812 77.953125 561.597656 80.964844 C 564.351562 83.933594 565.734375 88.109375 565.734375 93.496094 L 565.667969 94.132812 L 541.175781 94.132812 C 541.257812 97.1875 542.277344 99.648438 544.230469 101.515625 C 546.179688 103.378906 548.511719 104.3125 551.226562 104.3125 C 554.960938 104.3125 557.886719 102.445312 560.007812 98.714844 L 565.222656 101.257812 C 563.824219 103.890625 561.871094 105.945312 559.371094 107.429688 C 556.910156 108.914062 554.109375 109.65625 550.972656 109.65625 Z M 541.621094 89.296875 L 559.496094 89.296875 C 559.328125 87.136719 558.4375 85.355469 556.824219 83.953125 C 555.253906 82.511719 553.136719 81.792969 550.464844 81.792969 C 548.257812 81.792969 546.347656 82.46875 544.738281 83.828125 C 543.167969 85.183594 542.128906 87.007812 541.621094 89.296875 Z M 541.621094 89.296875 " fill-opacity="1" fill-rule="nonzero"/></svg>