<svg xmlns="http://www.w3.org/2000/svg" xmlns:xlink="http://www.w3.org/1999/xlink" width="978" zoomAndPan="magnify" viewBox="0 0 733.5 248.250006" height="331" preserveAspectRatio="xMidYMid meet" version="1.0"><defs><g/><clipPath id="0938f4b424"><path d="M 0.855469 0 L 732 0 L 732 247.046875 L 0.855469 247.046875 Z M 0.855469 0 " clip-rule="nonzero"/></clipPath><clipPath id="f30cc2ce01"><path d="M 38.988281 0 L 693.542969 0 C 703.660156 0 713.359375 4.019531 720.511719 11.167969 C 727.660156 18.320312 731.679688 28.019531 731.679688 38.136719 L 731.679688 208.914062 C 731.679688 219.027344 727.660156 228.726562 720.511719 235.878906 C 713.359375 243.03125 703.660156 247.046875 693.542969 247.046875 L 38.988281 247.046875 C 28.875 247.046875 19.175781 243.03125 12.023438 235.878906 C 4.875 228.726562 0.855469 219.027344 0.855469 208.914062 L 0.855469 38.136719 C 0.855469 28.019531 4.875 18.320312 12.023438 11.167969 C 19.175781 4.019531 28.875 0 38.988281 0 Z M 38.988281 0 " clip-rule="nonzero"/></clipPath><clipPath id="592c07eb80"><path d="M 0.855469 0 L 731.398438 0 L 731.398438 246.753906 L 0.855469 246.753906 Z M 0.855469 0 " clip-rule="nonzero"/></clipPath><clipPath id="3636b8f49e"><path d="M 38.992188 0 L 693.542969 0 C 703.65625 0 713.355469 4.019531 720.507812 11.167969 C 727.660156 18.320312 731.675781 28.019531 731.675781 38.132812 L 731.675781 208.910156 C 731.675781 219.027344 727.660156 228.726562 720.507812 235.878906 C 713.355469 243.027344 703.65625 247.046875 693.542969 247.046875 L 38.992188 247.046875 C 28.878906 247.046875 19.179688 243.027344 12.027344 235.878906 C 4.875 228.726562 0.855469 219.027344 0.855469 208.910156 L 0.855469 38.132812 C 0.855469 28.019531 4.875 18.320312 12.027344 11.167969 C 19.179688 4.019531 28.878906 0 38.992188 0 Z M 38.992188 0 " clip-rule="nonzero"/></clipPath></defs><g clip-path="url(#0938f4b424)"><g clip-path="url(#f30cc2ce01)"><path fill="#ffcc00" d="M 0.855469 0 L 731.382812 0 L 731.382812 247.046875 L 0.855469 247.046875 Z M 0.855469 0 " fill-opacity="1" fill-rule="nonzero"/></g></g><g clip-path="url(#592c07eb80)"><g clip-path="url(#3636b8f49e)"><path stroke-linecap="butt" transform="matrix(0.747741, 0, 0, 0.747741, 0.856907, 0.00000996988)" fill="none" stroke-linejoin="miter" d="M 51.000661 -0.0000133333 L 926.371767 -0.0000133333 C 939.896882 -0.0000133333 952.868245 5.375554 962.433515 14.9356 C 971.998785 24.50087 977.369128 37.472233 977.369128 50.997347 L 977.369128 279.388416 C 977.369128 292.918754 971.998785 305.890117 962.433515 315.455388 C 952.868245 325.015434 939.896882 330.391001 926.371767 330.391001 L 51.000661 330.391001 C 37.475547 330.391001 24.504184 325.015434 14.938914 315.455388 C 5.373643 305.890117 -0.0019235 292.918754 -0.0019235 279.388416 L -0.0019235 50.997347 C -0.0019235 37.472233 5.373643 24.50087 14.938914 14.9356 C 24.504184 5.375554 37.475547 -0.0000133333 51.000661 -0.0000133333 Z M 51.000661 -0.0000133333 " stroke="#ffe26d" stroke-width="26" stroke-opacity="1" stroke-miterlimit="4"/></g></g><path fill="#5b17eb" d="M 267.152344 107.875 L 465.386719 107.875 L 465.386719 113.109375 L 267.152344 113.109375 Z M 267.152344 107.875 " fill-opacity="1" fill-rule="nonzero"/><g fill="#5b17eb" fill-opacity="1"><g transform="translate(267.152106, 104.883143)"><g><path d="M 1.03125 -24.25 C 1.03125 -32.382812 2.648438 -38.800781 5.890625 -43.5 C 9.128906 -48.195312 13.046875 -50.546875 17.640625 -50.546875 C 22.253906 -50.546875 26.175781 -48.195312 29.40625 -43.5 C 32.632812 -38.800781 34.25 -32.382812 34.25 -24.25 C 34.25 -17.664062 32.632812 -12.398438 29.40625 -8.453125 C 26.175781 -4.515625 22.253906 -2.546875 17.640625 -2.546875 C 13.046875 -2.546875 9.128906 -4.515625 5.890625 -8.453125 C 2.648438 -12.398438 1.03125 -17.664062 1.03125 -24.25 Z M 12.5 -28.09375 C 12.5 -24.125 13.09375 -21.273438 14.28125 -19.546875 C 15.46875 -17.828125 16.867188 -16.96875 18.484375 -16.96875 C 20.109375 -16.96875 21.507812 -17.828125 22.6875 -19.546875 C 23.875 -21.273438 24.46875 -24.125 24.46875 -28.09375 C 24.46875 -30.582031 23.875 -32.691406 22.6875 -34.421875 C 21.507812 -36.148438 20.109375 -37.015625 18.484375 -37.015625 C 16.867188 -37.015625 15.46875 -36.148438 14.28125 -34.421875 C 13.09375 -32.691406 12.5 -30.582031 12.5 -28.09375 Z M 12.5 -28.09375 "/></g></g></g><g fill="#5b17eb" fill-opacity="1"><g transform="translate(302.443492, 104.883143)"><g><path d="M 28.65625 -20.640625 L 24.734375 -5.625 L 14.734375 -3.875 L 0.703125 -40.796875 L 13.25 -50.140625 L 19.59375 -27.609375 L 28.375 -46.078125 L 37.703125 -28.4375 L 42.609375 -51.078125 L 56.4375 -40.96875 L 42.609375 -5.390625 L 31.453125 -8.5625 Z M 28.65625 -20.640625 "/></g></g></g><g fill="#5b17eb" fill-opacity="1"><g transform="translate(359.587303, 104.883143)"><g><path d="M 14.28125 -22.671875 L 16.015625 -8.1875 L 3.140625 -4.90625 L 0.703125 -47.296875 L 13.1875 -49.4375 L 23.234375 -29.59375 L 23.375 -49.328125 L 39.109375 -50.90625 L 33.890625 -5.203125 L 23.828125 -3.734375 Z M 14.28125 -22.671875 "/></g></g></g><g fill="#5b17eb" fill-opacity="1"><g transform="translate(399.395986, 104.883143)"><g><path d="M 26.265625 -50.90625 L 26.9375 -37.265625 L 12.875 -35.78125 L 12.953125 -30.75 L 20.953125 -31.6875 L 21.3125 -22.453125 L 13.5 -21.65625 L 13.53125 -16.015625 L 27.078125 -17.03125 L 29.421875 -5.140625 L 0.703125 -4.15625 L 3.59375 -46.59375 Z M 26.265625 -50.90625 "/></g></g></g><g fill="#5b17eb" fill-opacity="1"><g transform="translate(429.520718, 104.883143)"><g><path d="M 13.46875 -39.5625 L 13.6875 -30.640625 C 20.207031 -30.640625 23.46875 -32.332031 23.46875 -35.71875 C 23.46875 -37.351562 20.132812 -38.632812 13.46875 -39.5625 Z M 15 -7.96875 L 0.703125 -5.953125 L 3.46875 -50.90625 C 23.820312 -49.40625 34.351562 -44.53125 35.0625 -36.28125 C 35.125 -35.644531 35.15625 -34.570312 35.15625 -33.0625 C 35.15625 -26.738281 32.179688 -22.597656 26.234375 -20.640625 L 34.640625 -13.8125 L 23.921875 -4.3125 L 14.484375 -18.265625 Z M 15 -7.96875 "/></g></g></g><g fill="#000000" fill-opacity="1"><g transform="translate(43.243388, 195.293896)"><g><path d="M 38.4375 -49.5625 L 40.40625 -7 L 27.296875 -5.90625 L 26.828125 -22.78125 L 19.3125 -14.6875 L 12.453125 -21.65625 L 12.953125 -7.421875 L 0.703125 -4.9375 L 2.234375 -49.53125 L 13.890625 -51.078125 L 19.28125 -30.328125 L 25.53125 -50.484375 Z M 38.4375 -49.5625 "/></g></g></g><g fill="#000000" fill-opacity="1"><g transform="translate(84.350793, 195.293896)"><g><path d="M 2.234375 -5.109375 L 0.703125 -51.078125 C 22.335938 -51.078125 33.15625 -43.414062 33.15625 -28.09375 C 33.15625 -12.769531 22.847656 -5.109375 2.234375 -5.109375 Z M 13.390625 -20.21875 C 18.828125 -20.21875 21.546875 -23.550781 21.546875 -30.21875 C 21.546875 -36.894531 18.34375 -40.234375 11.9375 -40.234375 L 13.21875 -20.21875 Z M 13.390625 -20.21875 "/></g></g></g><g fill="#000000" fill-opacity="1"><g transform="translate(118.202296, 195.293896)"><g><path d="M 6.609375 -5.109375 C 4.972656 -5.109375 3.578125 -5.679688 2.421875 -6.828125 C 1.273438 -7.984375 0.703125 -9.378906 0.703125 -11.015625 C 0.703125 -12.628906 1.273438 -14.015625 2.421875 -15.171875 C 3.578125 -16.328125 4.972656 -16.90625 6.609375 -16.90625 C 8.222656 -16.90625 9.609375 -16.328125 10.765625 -15.171875 C 11.929688 -14.015625 12.515625 -12.628906 12.515625 -11.015625 C 12.515625 -9.378906 11.929688 -7.984375 10.765625 -6.828125 C 9.609375 -5.679688 8.222656 -5.109375 6.609375 -5.109375 Z M 6.609375 -5.109375 "/></g></g></g><g fill="#000000" fill-opacity="1"><g transform="translate(131.415391, 195.293896)"><g/></g></g><g fill="#000000" fill-opacity="1"><g transform="translate(145.531945, 195.293896)"><g><path d="M 14.09375 -14.234375 L 12.34375 -4.71875 L 0.703125 -8.421875 L 13.640625 -50.453125 L 23.125 -51.140625 L 37.078125 -10.59375 L 25.015625 -4.828125 L 22.625 -15.875 Z M 20.1875 -25.46875 L 18.671875 -38.09375 L 16.859375 -24.9375 Z M 20.1875 -25.46875 "/></g></g></g><g fill="#000000" fill-opacity="1"><g transform="translate(183.307844, 195.293896)"><g><path d="M 10.984375 -33.59375 C 14.554688 -34.289062 16.34375 -36.070312 16.34375 -38.9375 C 16.34375 -41.34375 15.742188 -42.546875 14.546875 -42.546875 C 13.640625 -42.546875 12.394531 -42.320312 10.8125 -41.875 Z M 12.078125 -14.40625 C 17.878906 -14.644531 20.800781 -16.421875 20.84375 -19.734375 C 20.84375 -22.898438 18.160156 -24.484375 12.796875 -24.484375 L 11.828125 -24.484375 Z M 8.921875 -4.859375 C 6.398438 -4.859375 3.660156 -4.960938 0.703125 -5.171875 L 1.578125 -47.234375 C 7.503906 -49.796875 12.484375 -51.078125 16.515625 -51.078125 C 20.242188 -51.078125 23.15625 -49.976562 25.25 -47.78125 C 27.351562 -45.59375 28.40625 -42.671875 28.40625 -39.015625 C 28.40625 -35.179688 27.171875 -32.21875 24.703125 -30.125 C 29.921875 -28.414062 32.53125 -24.953125 32.53125 -19.734375 C 32.53125 -9.816406 24.660156 -4.859375 8.921875 -4.859375 Z M 8.921875 -4.859375 "/></g></g></g><g fill="#000000" fill-opacity="1"><g transform="translate(216.538218, 195.293896)"><g><path d="M 2.9375 -48.03125 L 16.578125 -44.421875 C 14.691406 -36.617188 13.75 -30.660156 13.75 -26.546875 C 14.65625 -21.910156 16.285156 -19.546875 18.640625 -19.453125 C 22.835938 -19.492188 24.9375 -23.46875 24.9375 -31.375 C 24.9375 -35.0625 24.523438 -39.578125 23.703125 -44.921875 L 36.265625 -50.3125 C 36.960938 -44.539062 37.3125 -39.316406 37.3125 -34.640625 C 37.3125 -15.160156 31.078125 -5.316406 18.609375 -5.109375 C 6.679688 -5.242188 0.71875 -12.941406 0.71875 -28.203125 C 0.71875 -33.773438 1.457031 -40.382812 2.9375 -48.03125 Z M 2.9375 -48.03125 "/></g></g></g><g fill="#000000" fill-opacity="1"><g transform="translate(255.386975, 195.293896)"><g/></g></g><g fill="#000000" fill-opacity="1"><g transform="translate(269.50353, 195.293896)"><g><path d="M 7.953125 -24.40625 C 3.191406 -25.625 0.773438 -28.726562 0.703125 -33.71875 C 0.703125 -35.882812 0.75 -37.632812 0.84375 -38.96875 C 1.519531 -45.875 8.984375 -49.910156 23.234375 -51.078125 L 25.4375 -38.546875 C 24.664062 -38.566406 23.941406 -38.578125 23.265625 -38.578125 C 17.828125 -38.578125 14.957031 -37.296875 14.65625 -34.734375 C 14.632812 -34.660156 14.625 -34.582031 14.625 -34.5 C 14.625 -33.425781 17.242188 -32.46875 22.484375 -31.625 C 27.734375 -30.78125 30.359375 -27.617188 30.359375 -22.140625 L 30.359375 -17.140625 C 30.222656 -10.140625 22.472656 -6.410156 7.109375 -5.953125 L 2.484375 -18.375 C 6.023438 -17.976562 8.820312 -17.78125 10.875 -17.78125 C 13.394531 -17.78125 14.796875 -18.828125 15.078125 -20.921875 C 15.097656 -21.015625 15.109375 -21.109375 15.109375 -21.203125 C 15.109375 -22.128906 12.722656 -23.195312 7.953125 -24.40625 Z M 7.953125 -24.40625 "/></g></g></g><g fill="#000000" fill-opacity="1"><g transform="translate(300.559949, 195.293896)"><g><path d="M 14.09375 -14.234375 L 12.34375 -4.71875 L 0.703125 -8.421875 L 13.640625 -50.453125 L 23.125 -51.140625 L 37.078125 -10.59375 L 25.015625 -4.828125 L 22.625 -15.875 Z M 20.1875 -25.46875 L 18.671875 -38.09375 L 16.859375 -24.9375 Z M 20.1875 -25.46875 "/></g></g></g><g fill="#000000" fill-opacity="1"><g transform="translate(338.335859, 195.293896)"><g><path d="M 3.921875 -51.015625 L 16.71875 -50.34375 L 13.125 -17.25 L 22.90625 -17.640625 L 20.046875 -3.8125 L 0.703125 -5.171875 Z M 3.921875 -51.015625 "/></g></g></g><g fill="#000000" fill-opacity="1"><g transform="translate(361.938737, 195.293896)"><g><path d="M 26.265625 -50.90625 L 26.9375 -37.265625 L 12.875 -35.78125 L 12.953125 -30.75 L 20.953125 -31.6875 L 21.3125 -22.453125 L 13.5 -21.65625 L 13.53125 -16.015625 L 27.078125 -17.03125 L 29.421875 -5.140625 L 0.703125 -4.15625 L 3.59375 -46.59375 Z M 26.265625 -50.90625 "/></g></g></g><g fill="#000000" fill-opacity="1"><g transform="translate(392.06347, 195.293896)"><g><path d="M 20.015625 -30.921875 L 19.90625 -47.96875 L 31 -51.25 L 37.125 -7.109375 L 20.296875 -5.421875 L 20.1875 -19.984375 L 12.984375 -20.8125 L 11.890625 -5.171875 L 0.703125 -9.96875 L 4.859375 -51.078125 L 15.015625 -49.296875 L 14.203125 -31.546875 Z M 20.015625 -30.921875 "/></g></g></g><g fill="#000000" fill-opacity="1"><g transform="translate(429.895835, 195.293896)"><g/></g></g><g fill="#000000" fill-opacity="1"><g transform="translate(444.012366, 195.293896)"><g><path d="M 0.765625 -20.109375 C 0.722656 -20.910156 0.703125 -21.691406 0.703125 -22.453125 C 0.703125 -36.097656 6.953125 -43.503906 19.453125 -44.671875 L 21.625 -34.359375 L 21.265625 -34.359375 C 16.328125 -34.359375 13.859375 -30.925781 13.859375 -24.0625 C 13.859375 -23.738281 13.859375 -23.398438 13.859375 -23.046875 C 14.109375 -15.796875 17.40625 -12.171875 23.75 -12.171875 C 24.164062 -12.171875 24.585938 -12.179688 25.015625 -12.203125 L 23.125 0.59375 C 21.957031 0.6875 20.835938 0.734375 19.765625 0.734375 C 7.773438 0.734375 1.441406 -6.210938 0.765625 -20.109375 Z M 0.765625 -20.109375 "/></g></g></g><g fill="#000000" fill-opacity="1"><g transform="translate(469.732756, 195.293896)"><g><path d="M 20.671875 -35.15625 L 21.765625 -8.046875 L 7.828125 -4.46875 L 9.9375 -35.890625 L 0.703125 -36.671875 L 1.546875 -48.765625 L 29.5 -50.453125 L 30.609375 -34.109375 Z M 20.671875 -35.15625 "/></g></g></g><g fill="#000000" fill-opacity="1"><g transform="translate(501.043268, 195.293896)"><g><path d="M 14.09375 -14.234375 L 12.34375 -4.71875 L 0.703125 -8.421875 L 13.640625 -50.453125 L 23.125 -51.140625 L 37.078125 -10.59375 L 25.015625 -4.828125 L 22.625 -15.875 Z M 20.1875 -25.46875 L 18.671875 -38.09375 L 16.859375 -24.9375 Z M 20.1875 -25.46875 "/></g></g></g><g fill="#000000" fill-opacity="1"><g transform="translate(538.819156, 195.293896)"><g><path d="M 28.65625 -20.640625 L 24.734375 -5.625 L 14.734375 -3.875 L 0.703125 -40.796875 L 13.25 -50.140625 L 19.59375 -27.609375 L 28.375 -46.078125 L 37.703125 -28.4375 L 42.609375 -51.078125 L 56.4375 -40.96875 L 42.609375 -5.390625 L 31.453125 -8.5625 Z M 28.65625 -20.640625 "/></g></g></g><g fill="#000000" fill-opacity="1"><g transform="translate(595.962967, 195.293896)"><g><path d="M 7.953125 -24.40625 C 3.191406 -25.625 0.773438 -28.726562 0.703125 -33.71875 C 0.703125 -35.882812 0.75 -37.632812 0.84375 -38.96875 C 1.519531 -45.875 8.984375 -49.910156 23.234375 -51.078125 L 25.4375 -38.546875 C 24.664062 -38.566406 23.941406 -38.578125 23.265625 -38.578125 C 17.828125 -38.578125 14.957031 -37.296875 14.65625 -34.734375 C 14.632812 -34.660156 14.625 -34.582031 14.625 -34.5 C 14.625 -33.425781 17.242188 -32.46875 22.484375 -31.625 C 27.734375 -30.78125 30.359375 -27.617188 30.359375 -22.140625 L 30.359375 -17.140625 C 30.222656 -10.140625 22.472656 -6.410156 7.109375 -5.953125 L 2.484375 -18.375 C 6.023438 -17.976562 8.820312 -17.78125 10.875 -17.78125 C 13.394531 -17.78125 14.796875 -18.828125 15.078125 -20.921875 C 15.097656 -21.015625 15.109375 -21.109375 15.109375 -21.203125 C 15.109375 -22.128906 12.722656 -23.195312 7.953125 -24.40625 Z M 7.953125 -24.40625 "/></g></g></g><g fill="#000000" fill-opacity="1"><g transform="translate(627.019408, 195.293896)"><g><path d="M 12.734375 -51.078125 L 15.140625 -6.21875 L 0.703125 -3.5 L 1.328125 -50.140625 Z M 12.734375 -51.078125 "/></g></g></g><g fill="#000000" fill-opacity="1"><g transform="translate(642.858199, 195.293896)"><g><path d="M 24.984375 -51.078125 L 25.984375 -40.046875 L 11.796875 -37.46875 L 12.21875 -31.484375 L 21.203125 -33.15625 L 22.453125 -22.078125 L 14.09375 -20.671875 L 16.03125 -7.625 L 3.328125 -5.90625 L 0.703125 -45.203125 Z M 24.984375 -51.078125 "/></g></g></g><g fill="#000000" fill-opacity="1"><g transform="translate(669.538503, 195.293896)"><g><path d="M 24.9375 -20.109375 C 24.257812 -6.210938 17.921875 0.734375 5.921875 0.734375 C 4.847656 0.734375 3.726562 0.6875 2.5625 0.59375 L 0.703125 -12.203125 C 1.140625 -12.179688 1.5625 -12.171875 1.96875 -12.171875 C 8.300781 -12.171875 11.585938 -15.796875 11.828125 -23.046875 L 11.828125 -24.078125 C 11.828125 -30.929688 9.375 -34.359375 4.46875 -34.359375 L 4.09375 -34.359375 L 6.234375 -44.671875 C 18.734375 -43.503906 24.984375 -36.101562 24.984375 -22.46875 C 24.984375 -21.695312 24.96875 -20.910156 24.9375 -20.109375 Z M 24.9375 -20.109375 "/></g></g></g></svg>