<svg xmlns="http://www.w3.org/2000/svg" xmlns:xlink="http://www.w3.org/1999/xlink" width="500" zoomAndPan="magnify" viewBox="0 0 375 374.999991" height="500" preserveAspectRatio="xMidYMid meet" version="1.0"><defs><g/><clipPath id="e67524740a"><path d="M 38.25 0 L 336.75 0 C 346.894531 0 356.625 4.03125 363.796875 11.203125 C 370.96875 18.375 375 28.105469 375 38.25 L 375 336.75 C 375 346.894531 370.96875 356.625 363.796875 363.796875 C 356.625 370.96875 346.894531 375 336.75 375 L 38.25 375 C 28.105469 375 18.375 370.96875 11.203125 363.796875 C 4.03125 356.625 0 346.894531 0 336.75 L 0 38.25 C 0 28.105469 4.03125 18.375 11.203125 11.203125 C 18.375 4.03125 28.105469 0 38.25 0 Z M 38.25 0 " clip-rule="nonzero"/></clipPath><clipPath id="c817cd38e8"><path d="M 70.378906 41.097656 L 304.378906 41.097656 L 304.378906 333.597656 L 70.378906 333.597656 Z M 70.378906 41.097656 " clip-rule="nonzero"/></clipPath><clipPath id="ddbc9fad43"><path d="M 228 92 L 304.378906 92 L 304.378906 173 L 228 173 Z M 228 92 " clip-rule="nonzero"/></clipPath><clipPath id="7f02527112"><path d="M 216 41.097656 L 304.378906 41.097656 L 304.378906 129 L 216 129 Z M 216 41.097656 " clip-rule="nonzero"/></clipPath></defs><g clip-path="url(#e67524740a)"><rect x="-37.5" width="450" fill="#ffffff" y="-37.499999" height="449.999989" fill-opacity="1"/></g><g clip-path="url(#c817cd38e8)"><path fill="#de3b38" d="M 99.628906 41.101562 L 216.628906 41.101562 L 304.378906 128.851562 L 304.378906 304.34375 C 304.378906 305.300781 304.332031 306.257812 304.238281 307.210938 C 304.144531 308.164062 304.003906 309.109375 303.816406 310.050781 C 303.628906 310.988281 303.398438 311.917969 303.117188 312.832031 C 302.839844 313.75 302.519531 314.652344 302.152344 315.535156 C 301.785156 316.421875 301.375 317.285156 300.925781 318.128906 C 300.472656 318.976562 299.980469 319.796875 299.449219 320.59375 C 298.917969 321.390625 298.347656 322.15625 297.738281 322.898438 C 297.128906 323.636719 296.488281 324.347656 295.8125 325.023438 C 295.132812 325.703125 294.425781 326.34375 293.683594 326.953125 C 292.945312 327.558594 292.175781 328.128906 291.378906 328.664062 C 290.582031 329.195312 289.761719 329.6875 288.917969 330.136719 C 288.070312 330.589844 287.207031 331 286.320312 331.363281 C 285.4375 331.730469 284.535156 332.054688 283.617188 332.332031 C 282.703125 332.609375 281.773438 332.84375 280.835938 333.03125 C 279.894531 333.214844 278.949219 333.355469 277.996094 333.449219 C 277.042969 333.542969 276.085938 333.589844 275.128906 333.589844 L 99.628906 333.589844 C 98.671875 333.589844 97.714844 333.542969 96.761719 333.449219 C 95.808594 333.355469 94.859375 333.214844 93.921875 333.03125 C 92.980469 332.84375 92.054688 332.609375 91.136719 332.332031 C 90.21875 332.054688 89.320312 331.730469 88.433594 331.363281 C 87.550781 331 86.683594 330.589844 85.839844 330.136719 C 84.996094 329.6875 84.175781 329.195312 83.378906 328.664062 C 82.582031 328.128906 81.8125 327.558594 81.070312 326.953125 C 80.332031 326.34375 79.621094 325.703125 78.945312 325.023438 C 78.269531 324.347656 77.625 323.636719 77.015625 322.898438 C 76.410156 322.15625 75.839844 321.390625 75.308594 320.59375 C 74.773438 319.796875 74.285156 318.976562 73.832031 318.128906 C 73.378906 317.285156 72.972656 316.421875 72.605469 315.535156 C 72.238281 314.652344 71.914062 313.75 71.636719 312.832031 C 71.359375 311.917969 71.125 310.988281 70.941406 310.050781 C 70.753906 309.109375 70.613281 308.164062 70.519531 307.210938 C 70.425781 306.257812 70.378906 305.300781 70.378906 304.34375 L 70.378906 70.351562 C 70.378906 69.394531 70.425781 68.4375 70.519531 67.484375 C 70.613281 66.53125 70.753906 65.585938 70.941406 64.644531 C 71.125 63.707031 71.359375 62.777344 71.636719 61.863281 C 71.914062 60.945312 72.238281 60.042969 72.605469 59.160156 C 72.972656 58.273438 73.378906 57.410156 73.832031 56.5625 C 74.285156 55.71875 74.773438 54.898438 75.308594 54.101562 C 75.839844 53.304688 76.410156 52.539062 77.015625 51.796875 C 77.625 51.054688 78.269531 50.347656 78.945312 49.671875 C 79.621094 48.992188 80.332031 48.351562 81.070312 47.742188 C 81.8125 47.132812 82.582031 46.566406 83.378906 46.03125 C 84.175781 45.5 84.996094 45.007812 85.839844 44.558594 C 86.683594 44.105469 87.550781 43.695312 88.433594 43.328125 C 89.320312 42.964844 90.21875 42.640625 91.136719 42.363281 C 92.054688 42.085938 92.980469 41.851562 93.921875 41.664062 C 94.859375 41.476562 95.808594 41.339844 96.761719 41.242188 C 97.714844 41.148438 98.671875 41.101562 99.628906 41.101562 Z M 99.628906 41.101562 " fill-opacity="1" fill-rule="nonzero"/></g><g fill="#ffffff" fill-opacity="1"><g transform="translate(99.627939, 252.718548)"><g><path d="M 55.53125 -41.25 C 55.53125 -37.363281 54.644531 -33.894531 52.875 -30.84375 C 51.101562 -27.789062 48.566406 -25.425781 45.265625 -23.75 C 41.960938 -22.082031 38.039062 -21.25 33.5 -21.25 L 18.515625 -21.25 L 18.515625 0 L 5.875 0 L 5.875 -60.359375 L 32.984375 -60.359375 C 40.210938 -60.359375 45.773438 -58.691406 49.671875 -55.359375 C 53.578125 -52.035156 55.53125 -47.332031 55.53125 -41.25 Z M 42.796875 -41.046875 C 42.796875 -47.378906 39.054688 -50.546875 31.578125 -50.546875 L 18.515625 -50.546875 L 18.515625 -30.96875 L 31.921875 -30.96875 C 35.398438 -30.96875 38.082031 -31.832031 39.96875 -33.5625 C 41.851562 -35.289062 42.796875 -37.785156 42.796875 -41.046875 Z M 42.796875 -41.046875 "/></g></g></g><g fill="#ffffff" fill-opacity="1"><g transform="translate(158.152595, 252.718548)"><g><path d="M 59.6875 -30.625 C 59.6875 -24.40625 58.460938 -18.972656 56.015625 -14.328125 C 53.578125 -9.691406 50.125 -6.144531 45.65625 -3.6875 C 41.1875 -1.226562 36.066406 0 30.296875 0 L 5.875 0 L 5.875 -60.359375 L 27.71875 -60.359375 C 37.882812 -60.359375 45.753906 -57.796875 51.328125 -52.671875 C 56.898438 -47.546875 59.6875 -40.195312 59.6875 -30.625 Z M 46.953125 -30.625 C 46.953125 -37.113281 45.265625 -42.0625 41.890625 -45.46875 C 38.523438 -48.882812 33.71875 -50.59375 27.46875 -50.59375 L 18.515625 -50.59375 L 18.515625 -9.765625 L 29.21875 -9.765625 C 34.644531 -9.765625 38.957031 -11.632812 42.15625 -15.375 C 45.351562 -19.113281 46.953125 -24.195312 46.953125 -30.625 Z M 46.953125 -30.625 "/></g></g></g><g fill="#ffffff" fill-opacity="1"><g transform="translate(221.518608, 252.718548)"><g><path d="M 18.515625 -50.59375 L 18.515625 -31.921875 L 49.40625 -31.921875 L 49.40625 -22.140625 L 18.515625 -22.140625 L 18.515625 0 L 5.875 0 L 5.875 -60.359375 L 50.390625 -60.359375 L 50.390625 -50.59375 Z M 18.515625 -50.59375 "/></g></g></g><g clip-path="url(#ddbc9fad43)"><path fill="#d13532" d="M 304.378906 172.136719 L 228.621094 123.292969 L 266.5 92.726562 L 304.378906 128.851562 Z M 304.378906 172.136719 " fill-opacity="1" fill-rule="nonzero"/></g><g clip-path="url(#7f02527112)"><path fill="#d56c6f" d="M 216.628906 41.101562 L 216.628906 99.601562 C 216.628906 100.558594 216.675781 101.515625 216.769531 102.46875 C 216.863281 103.421875 217.003906 104.367188 217.191406 105.308594 C 217.375 106.246094 217.609375 107.175781 217.886719 108.089844 C 218.164062 109.007812 218.488281 109.910156 218.855469 110.792969 C 219.222656 111.679688 219.628906 112.542969 220.082031 113.390625 C 220.535156 114.234375 221.023438 115.054688 221.558594 115.851562 C 222.089844 116.648438 222.660156 117.414062 223.265625 118.15625 C 223.875 118.898438 224.519531 119.605469 225.195312 120.28125 C 225.871094 120.960938 226.582031 121.601562 227.320312 122.210938 C 228.0625 122.816406 228.832031 123.386719 229.628906 123.921875 C 230.425781 124.453125 231.246094 124.945312 232.089844 125.394531 C 232.933594 125.847656 233.800781 126.257812 234.683594 126.625 C 235.570312 126.988281 236.46875 127.3125 237.386719 127.589844 C 238.304688 127.867188 239.230469 128.101562 240.171875 128.289062 C 241.109375 128.476562 242.058594 128.613281 243.011719 128.707031 C 243.964844 128.804688 244.921875 128.851562 245.878906 128.851562 L 304.378906 128.851562 Z M 216.628906 41.101562 " fill-opacity="1" fill-rule="nonzero"/></g><path fill="#004aad" d="M 322.511719 41.328125 L 322.546875 41.367188 L 322.566406 41.390625 L 322.613281 41.472656 L 322.691406 41.628906 L 322.769531 41.820312 L 322.785156 41.855469 L 322.828125 41.96875 L 322.855469 42.03125 L 322.921875 42.191406 L 322.957031 42.277344 L 323.046875 42.484375 L 323.089844 42.589844 L 323.195312 42.832031 L 323.246094 42.957031 L 323.363281 43.226562 L 323.421875 43.363281 L 323.546875 43.652344 L 323.945312 44.566406 L 324.167969 45.078125 L 324.601562 46.078125 L 324.816406 46.574219 L 325.238281 47.550781 L 325.449219 48.035156 L 325.859375 48.984375 L 326.0625 49.457031 L 326.453125 50.375 L 326.648438 50.832031 L 327.027344 51.71875 L 327.214844 52.160156 L 327.578125 53.015625 L 327.757812 53.4375 L 328.101562 54.257812 L 328.273438 54.660156 L 328.597656 55.445312 L 328.761719 55.828125 L 329.070312 56.570312 L 329.222656 56.9375 L 329.507812 57.636719 L 329.648438 57.984375 L 329.917969 58.640625 L 330.046875 58.960938 L 330.292969 59.570312 L 330.414062 59.871094 L 330.636719 60.433594 L 330.746094 60.707031 L 330.945312 61.21875 L 331.042969 61.46875 L 331.21875 61.929688 L 331.453125 62.554688 L 331.53125 62.761719 L 331.664062 63.128906 L 331.726562 63.308594 L 331.835938 63.621094 L 331.890625 63.769531 L 331.980469 64.035156 L 332.019531 64.164062 L 332.09375 64.390625 L 332.179688 64.691406 L 332.203125 64.785156 L 332.242188 64.949219 L 332.316406 65.382812 L 332.328125 65.480469 L 332.335938 65.632812 L 332.339844 65.699219 L 332.316406 65.863281 L 332.269531 65.964844 L 332.164062 66.140625 L 332.144531 66.175781 L 332.082031 66.25 L 332.050781 66.289062 L 331.96875 66.378906 L 331.925781 66.425781 L 331.765625 66.585938 L 331.640625 66.707031 L 331.574219 66.765625 L 331.425781 66.902344 L 331.347656 66.96875 L 331.179688 67.117188 L 331.089844 67.195312 L 330.902344 67.355469 L 330.804688 67.4375 L 330.59375 67.613281 L 330.484375 67.703125 L 330.253906 67.894531 L 330.132812 67.988281 L 329.882812 68.191406 L 329.753906 68.292969 L 329.484375 68.507812 L 329.34375 68.617188 L 329.054688 68.84375 L 328.90625 68.960938 L 328.597656 69.199219 L 328.441406 69.324219 L 327.949219 69.699219 L 327.601562 69.964844 L 327.425781 70.097656 L 327.0625 70.371094 L 326.695312 70.648438 L 325.90625 71.238281 L 325.503906 71.539062 L 324.648438 72.167969 L 324.214844 72.488281 L 323.296875 73.160156 L 322.828125 73.5 L 321.851562 74.210938 L 321.351562 74.570312 L 320.316406 75.3125 L 319.789062 75.691406 L 318.699219 76.46875 L 318.144531 76.863281 L 317 77.671875 L 315.226562 78.917969 L 315.097656 79.011719 L 314.820312 79.207031 L 314.679688 79.304688 L 314.386719 79.507812 L 314.09375 79.714844 L 313.503906 80.128906 L 313.359375 80.230469 L 313.078125 80.429688 L 312.941406 80.527344 L 312.683594 80.707031 L 312.558594 80.796875 L 312.328125 80.957031 L 312.027344 81.167969 L 311.632812 81.445312 L 310.804688 82.027344 L 310.386719 82.320312 L 309.539062 82.90625 L 309.121094 83.199219 L 308.296875 83.769531 L 308.09375 83.910156 L 307.703125 84.179688 L 307.507812 84.316406 L 307.136719 84.570312 L 306.953125 84.699219 L 306.605469 84.9375 L 306.433594 85.050781 L 306.117188 85.269531 L 305.964844 85.375 L 305.683594 85.566406 L 305.546875 85.660156 L 305.308594 85.820312 L 305.191406 85.898438 L 305 86.027344 L 304.90625 86.089844 L 304.761719 86.183594 L 304.699219 86.226562 L 304.613281 86.28125 L 304.550781 86.3125 L 304.542969 86.3125 L 304.515625 86.300781 L 304.5 86.296875 L 304.457031 86.273438 L 304.40625 86.246094 L 304.257812 86.15625 L 304.179688 86.109375 L 303.992188 85.988281 L 303.894531 85.921875 L 303.679688 85.777344 L 303.625 85.742188 L 303.484375 85.640625 L 303.40625 85.589844 L 303.222656 85.464844 L 303.125 85.398438 L 302.910156 85.246094 L 302.796875 85.167969 L 302.554688 85.003906 L 302.308594 84.832031 L 301.769531 84.457031 L 300.957031 83.894531 L 300.460938 83.546875 L 299.488281 82.871094 L 299.007812 82.535156 L 298.066406 81.878906 L 297.601562 81.554688 L 296.695312 80.917969 L 296.246094 80.605469 L 295.375 79.992188 L 294.941406 79.6875 L 294.097656 79.09375 L 293.679688 78.800781 L 292.871094 78.226562 L 292.46875 77.945312 L 291.6875 77.390625 L 291.304688 77.117188 L 290.554688 76.585938 L 290.183594 76.324219 L 289.46875 75.8125 L 288.429688 75.070312 L 288.089844 74.828125 L 287.433594 74.355469 L 287.109375 74.121094 L 286.488281 73.671875 L 286.179688 73.449219 L 285.585938 73.015625 L 285.292969 72.804688 L 284.730469 72.390625 L 284.453125 72.1875 L 283.917969 71.796875 L 283.65625 71.601562 L 283.152344 71.230469 L 282.90625 71.046875 L 282.433594 70.691406 L 282.199219 70.519531 L 281.753906 70.183594 L 281.539062 70.019531 L 281.125 69.703125 L 280.921875 69.546875 L 280.535156 69.253906 L 280.347656 69.105469 L 279.992188 68.828125 L 279.816406 68.691406 L 279.492188 68.433594 L 279.332031 68.304688 L 279.035156 68.066406 L 278.890625 67.949219 L 278.621094 67.726562 L 278.492188 67.617188 L 278.25 67.414062 L 278.132812 67.316406 L 277.921875 67.128906 L 277.820312 67.039062 L 277.636719 66.871094 L 277.546875 66.789062 L 277.394531 66.640625 L 277.320312 66.570312 L 277.191406 66.4375 L 277.132812 66.375 L 277.03125 66.257812 L 276.984375 66.203125 L 276.914062 66.109375 L 276.835938 65.984375 L 276.800781 65.914062 L 276.753906 65.804688 L 276.734375 65.753906 L 276.71875 65.648438 L 276.710938 65.597656 L 276.71875 65.472656 L 276.757812 65.234375 L 276.769531 65.160156 L 276.816406 64.976562 L 276.839844 64.878906 L 276.90625 64.652344 L 276.941406 64.53125 L 277.027344 64.253906 L 277.074219 64.113281 L 277.183594 63.789062 L 277.238281 63.625 L 277.367188 63.257812 L 277.433594 63.070312 L 277.585938 62.660156 L 277.664062 62.453125 L 277.832031 62 L 277.921875 61.765625 L 278.109375 61.273438 L 278.207031 61.019531 L 278.417969 60.484375 L 278.527344 60.210938 L 278.753906 59.632812 L 278.871094 59.339844 L 279.121094 58.722656 L 279.246094 58.410156 L 279.515625 57.753906 L 279.652344 57.417969 L 279.9375 56.726562 L 280.082031 56.371094 L 280.386719 55.640625 L 280.542969 55.269531 L 280.863281 54.5 L 281.367188 53.304688 L 281.496094 53 L 281.765625 52.363281 L 281.902344 52.042969 L 282.183594 51.390625 L 282.460938 50.730469 L 283.039062 49.386719 L 283.328125 48.71875 L 283.894531 47.40625 L 284.03125 47.082031 L 284.304688 46.453125 L 284.441406 46.144531 L 284.699219 45.542969 L 284.828125 45.25 L 285.070312 44.691406 L 285.191406 44.417969 L 285.414062 43.910156 L 285.523438 43.660156 L 285.722656 43.207031 L 285.820312 42.988281 L 285.992188 42.601562 L 286.074219 42.417969 L 286.21875 42.101562 L 286.25 42.027344 L 286.308594 41.898438 L 286.339844 41.835938 L 286.390625 41.722656 L 286.414062 41.671875 L 286.472656 41.542969 L 286.539062 41.410156 L 286.558594 41.382812 L 286.566406 41.371094 L 286.628906 41.386719 L 286.667969 41.398438 L 286.777344 41.449219 L 286.835938 41.476562 L 286.976562 41.558594 L 287.207031 41.707031 L 287.464844 41.875 L 287.949219 42.191406 L 288.066406 42.269531 L 288.285156 42.410156 L 288.390625 42.480469 L 288.585938 42.601562 L 288.675781 42.660156 L 288.835938 42.761719 L 288.914062 42.808594 L 289.035156 42.878906 L 289.089844 42.910156 L 289.164062 42.953125 L 289.210938 42.972656 L 289.214844 42.96875 L 289.238281 42.914062 L 289.25 42.882812 L 289.289062 42.78125 L 289.3125 42.722656 L 289.363281 42.585938 L 289.453125 42.355469 L 289.480469 42.273438 L 289.539062 42.121094 L 289.570312 42.046875 L 289.621094 41.917969 L 289.648438 41.859375 L 289.6875 41.769531 L 289.726562 41.699219 L 289.761719 41.710938 L 289.804688 41.734375 L 289.828125 41.746094 L 289.894531 41.78125 L 289.925781 41.800781 L 290.011719 41.851562 L 290.054688 41.878906 L 290.15625 41.941406 L 290.210938 41.972656 L 290.332031 42.046875 L 290.453125 42.125 L 290.75 42.3125 L 290.902344 42.410156 L 291.253906 42.632812 L 291.433594 42.75 L 291.828125 43.007812 L 292.03125 43.140625 L 292.460938 43.421875 L 293.132812 43.867188 L 293.550781 44.144531 L 294.359375 44.679688 L 294.761719 44.945312 L 295.546875 45.46875 L 296.332031 45.988281 L 297.875 47.011719 L 298.648438 47.523438 L 300.21875 48.5625 L 300.617188 48.828125 L 301.433594 49.367188 L 302.691406 50.195312 L 302.933594 50.359375 L 303.382812 50.652344 L 303.492188 50.722656 L 303.691406 50.851562 L 303.789062 50.914062 L 304.046875 51.078125 L 304.1875 51.167969 L 304.253906 51.210938 L 304.363281 51.277344 L 304.414062 51.304688 L 304.480469 51.34375 L 304.53125 51.367188 L 304.558594 51.355469 L 304.574219 51.34375 L 304.625 51.3125 L 304.65625 51.296875 L 304.730469 51.246094 L 304.773438 51.222656 L 304.871094 51.160156 L 304.925781 51.125 L 305.046875 51.046875 L 305.113281 51.003906 L 305.253906 50.910156 L 305.328125 50.863281 L 305.492188 50.757812 L 305.574219 50.703125 L 305.753906 50.585938 L 305.941406 50.464844 L 306.359375 50.191406 L 306.574219 50.050781 L 307.046875 49.742188 L 307.289062 49.582031 L 307.800781 49.242188 L 308.609375 48.707031 L 308.851562 48.546875 L 309.328125 48.230469 L 309.5625 48.074219 L 310.015625 47.773438 L 310.242188 47.625 L 310.679688 47.335938 L 310.894531 47.191406 L 311.316406 46.914062 L 311.519531 46.777344 L 311.921875 46.511719 L 312.117188 46.378906 L 312.691406 46.003906 L 313.054688 45.761719 L 313.234375 45.640625 L 313.582031 45.414062 L 313.925781 45.1875 L 314.558594 44.765625 L 314.867188 44.5625 L 315.433594 44.1875 L 315.710938 44.007812 L 316.210938 43.675781 L 316.457031 43.515625 L 316.894531 43.222656 L 317.109375 43.085938 L 317.488281 42.835938 L 317.671875 42.714844 L 317.992188 42.503906 L 318.144531 42.40625 L 318.410156 42.234375 L 318.535156 42.152344 L 318.746094 42.015625 L 318.847656 41.953125 L 319.003906 41.851562 L 319.078125 41.804688 L 319.1875 41.734375 L 319.234375 41.707031 L 319.296875 41.671875 L 319.332031 41.652344 L 319.335938 41.65625 L 319.359375 41.707031 L 319.375 41.738281 L 319.414062 41.835938 L 319.4375 41.890625 L 319.488281 42.019531 L 319.574219 42.234375 L 319.601562 42.3125 L 319.664062 42.457031 L 319.691406 42.527344 L 319.746094 42.648438 L 319.816406 42.789062 L 319.859375 42.859375 L 319.867188 42.867188 L 319.90625 42.867188 L 319.929688 42.863281 L 320.007812 42.832031 L 320.050781 42.8125 L 320.164062 42.753906 L 320.226562 42.722656 L 320.378906 42.632812 L 320.460938 42.585938 L 320.660156 42.464844 L 320.761719 42.402344 L 321.003906 42.25 L 321.132812 42.167969 L 321.417969 41.984375 L 321.910156 41.664062 L 321.980469 41.617188 L 322.113281 41.535156 L 322.179688 41.492188 L 322.292969 41.425781 L 322.347656 41.394531 L 322.429688 41.355469 L 322.5 41.328125 M 290.199219 43.121094 L 290.160156 43.191406 L 290.140625 43.238281 L 290.125 43.265625 L 290.097656 43.332031 L 290.082031 43.371094 L 290.042969 43.457031 L 290.023438 43.503906 L 289.980469 43.613281 L 289.953125 43.671875 L 289.902344 43.800781 L 289.871094 43.875 L 289.808594 44.03125 L 289.773438 44.117188 L 289.703125 44.296875 L 289.664062 44.394531 L 289.582031 44.601562 L 289.535156 44.714844 L 289.441406 44.949219 L 289.390625 45.078125 L 289.289062 45.34375 L 289.230469 45.488281 L 289.113281 45.78125 L 289.050781 45.941406 L 288.921875 46.269531 L 288.855469 46.449219 L 288.710938 46.808594 L 288.636719 47.003906 L 288.480469 47.402344 L 288.398438 47.613281 L 288.269531 47.933594 L 288.175781 48.171875 L 288.125 48.300781 L 287.914062 48.84375 L 287.800781 49.128906 L 287.574219 49.707031 L 287.464844 49.988281 L 287.355469 50.265625 L 287.304688 50.394531 L 287.203125 50.65625 L 287.15625 50.773438 L 287.007812 51.152344 L 286.902344 51.421875 L 286.847656 51.558594 L 286.625 52.128906 L 286.511719 52.410156 L 286.292969 52.96875 L 286.195312 53.222656 L 286.097656 53.472656 L 286.054688 53.585938 L 285.96875 53.804688 L 285.929688 53.898438 L 285.808594 54.207031 L 285.722656 54.433594 L 285.675781 54.558594 L 285.476562 55.0625 L 285.371094 55.328125 L 285.164062 55.859375 L 285.0625 56.117188 L 284.964844 56.367188 L 284.824219 56.71875 L 284.785156 56.824219 L 284.53125 57.464844 L 284.363281 57.886719 L 284.214844 58.261719 L 284.183594 58.34375 L 284.117188 58.511719 L 284.089844 58.582031 L 284.035156 58.71875 L 284.015625 58.777344 L 283.972656 58.882812 L 283.960938 58.917969 L 283.902344 59.0625 L 283.855469 59.1875 L 283.761719 59.421875 L 283.726562 59.511719 L 283.65625 59.695312 L 283.617188 59.796875 L 283.449219 60.21875 L 283.359375 60.445312 L 283.179688 60.902344 L 283.089844 61.132812 L 282.871094 61.691406 L 282.734375 62.03125 L 282.675781 62.183594 L 282.5625 62.472656 L 282.511719 62.601562 L 282.417969 62.84375 L 282.378906 62.949219 L 282.304688 63.144531 L 282.273438 63.222656 L 282.21875 63.367188 L 282.199219 63.421875 L 282.152344 63.546875 L 282.136719 63.59375 L 282.136719 63.597656 L 282.160156 63.617188 L 282.191406 63.640625 L 282.21875 63.660156 L 282.273438 63.707031 L 282.3125 63.730469 L 282.390625 63.789062 L 282.433594 63.824219 L 282.636719 63.972656 L 282.753906 64.058594 L 283.007812 64.242188 L 283.148438 64.34375 L 283.9375 64.917969 L 284.4375 65.277344 L 284.675781 65.453125 L 285.144531 65.792969 L 285.367188 65.953125 L 285.800781 66.269531 L 286.007812 66.417969 L 286.414062 66.710938 L 286.601562 66.847656 L 286.976562 67.117188 L 287.152344 67.246094 L 287.492188 67.492188 L 287.652344 67.609375 L 287.960938 67.832031 L 288.105469 67.9375 L 288.386719 68.140625 L 288.515625 68.234375 L 288.765625 68.417969 L 288.878906 68.5 L 289.101562 68.660156 L 289.203125 68.734375 L 289.394531 68.871094 L 289.476562 68.933594 L 289.640625 69.054688 L 289.710938 69.105469 L 289.847656 69.203125 L 289.90625 69.246094 L 290.011719 69.324219 L 290.054688 69.355469 L 290.132812 69.414062 L 290.164062 69.433594 L 290.304688 69.539062 L 290.425781 69.625 L 290.496094 69.675781 L 290.640625 69.785156 L 290.722656 69.84375 L 290.894531 69.96875 L 290.984375 70.035156 L 291.367188 70.3125 L 291.566406 70.457031 L 291.980469 70.753906 L 292.179688 70.898438 L 292.429688 71.078125 L 292.621094 71.21875 L 292.730469 71.296875 L 292.957031 71.460938 L 293.082031 71.550781 L 293.339844 71.738281 L 293.484375 71.839844 L 293.777344 72.054688 L 293.9375 72.171875 L 294.269531 72.410156 L 294.445312 72.539062 L 294.8125 72.804688 L 295.011719 72.949219 L 295.414062 73.242188 L 295.632812 73.398438 L 296.074219 73.722656 L 296.308594 73.890625 L 296.792969 74.242188 L 297.046875 74.425781 L 297.570312 74.804688 L 297.84375 75.003906 L 298.40625 75.414062 L 298.703125 75.628906 L 299.308594 76.066406 L 299.625 76.296875 L 300.269531 76.765625 L 300.609375 77.011719 L 301.296875 77.511719 L 301.660156 77.777344 L 302.390625 78.308594 L 302.773438 78.585938 L 303 78.75 L 303.101562 78.820312 L 303.375 79.011719 L 303.519531 79.113281 L 303.566406 79.144531 L 303.613281 79.171875 L 303.648438 79.195312 L 303.652344 79.195312 L 303.652344 79.175781 L 303.65625 79.148438 L 303.65625 79.039062 L 303.660156 78.964844 L 303.660156 78.820312 L 303.664062 78.765625 L 303.664062 78.582031 L 303.667969 78.292969 L 303.667969 78.121094 L 303.671875 77.757812 L 303.671875 77.109375 L 303.675781 76.863281 L 303.675781 75.503906 L 303.679688 75.195312 L 303.679688 67.425781 L 303.675781 66.96875 L 303.675781 65.582031 L 303.652344 51.960938 L 303.472656 51.828125 L 303.367188 51.757812 L 303.324219 51.726562 L 303.234375 51.667969 L 303.175781 51.628906 L 303.050781 51.546875 L 302.980469 51.496094 L 302.824219 51.394531 L 302.738281 51.335938 L 302.554688 51.214844 L 302.453125 51.148438 L 302.246094 51.011719 L 301.898438 50.777344 L 301.773438 50.695312 L 301.519531 50.527344 L 301.382812 50.4375 L 301.105469 50.253906 L 300.960938 50.15625 L 300.363281 49.757812 L 300.039062 49.542969 L 299.375 49.105469 L 299.027344 48.875 L 298.320312 48.40625 L 297.953125 48.164062 L 296.855469 47.4375 L 296.136719 46.960938 L 295.785156 46.730469 L 295.097656 46.273438 L 294.773438 46.058594 L 294.132812 45.632812 L 293.835938 45.4375 L 293.546875 45.246094 L 293.40625 45.152344 L 293.136719 44.976562 L 293.007812 44.890625 L 292.761719 44.722656 L 292.644531 44.648438 L 292.417969 44.496094 L 292.316406 44.429688 L 292.117188 44.296875 L 292.027344 44.238281 L 291.855469 44.125 L 291.78125 44.074219 L 291.644531 43.980469 L 291.585938 43.945312 L 291.480469 43.871094 L 291.4375 43.84375 L 290.976562 43.542969 L 290.835938 43.457031 L 290.769531 43.414062 L 290.644531 43.339844 L 290.589844 43.304688 L 290.480469 43.246094 L 290.4375 43.21875 L 290.347656 43.171875 L 290.316406 43.15625 L 290.253906 43.128906 L 290.234375 43.125 L 290.203125 43.117188 M 318.859375 43.101562 L 318.824219 43.113281 L 318.796875 43.128906 L 318.734375 43.167969 L 318.6875 43.195312 L 318.585938 43.253906 L 318.523438 43.296875 L 318.378906 43.386719 L 318.289062 43.441406 L 318.101562 43.566406 L 317.984375 43.640625 L 317.738281 43.800781 L 317.59375 43.894531 L 317.289062 44.09375 L 316.929688 44.328125 L 316.832031 44.394531 L 316.632812 44.523438 L 316.527344 44.59375 L 316.308594 44.738281 L 316.191406 44.8125 L 315.957031 44.96875 L 315.828125 45.050781 L 315.574219 45.222656 L 315.4375 45.3125 L 315.160156 45.496094 L 315.011719 45.589844 L 314.714844 45.789062 L 314.234375 46.105469 L 314.066406 46.214844 L 313.722656 46.441406 L 313.542969 46.5625 L 313.175781 46.804688 L 312.589844 47.191406 L 312.382812 47.328125 L 311.96875 47.605469 L 311.75 47.75 L 311.304688 48.042969 L 311.074219 48.195312 L 310.605469 48.503906 L 310.359375 48.667969 L 309.863281 48.996094 L 309.605469 49.167969 L 309.078125 49.515625 L 308.804688 49.699219 L 305.386719 51.960938 L 305.386719 71.621094 L 305.390625 72.085938 L 305.390625 73.570312 L 305.394531 73.960938 L 305.394531 75.019531 L 305.398438 75.179688 L 305.398438 75.644531 L 305.402344 75.9375 L 305.402344 76.472656 L 305.40625 76.960938 L 305.410156 77.171875 L 305.414062 77.578125 L 305.417969 77.753906 L 305.421875 78.082031 L 305.425781 78.21875 L 305.429688 78.476562 L 305.433594 78.582031 L 305.441406 78.773438 L 305.445312 78.847656 L 305.453125 78.980469 L 305.457031 79.023438 L 305.464844 79.101562 L 305.46875 79.121094 L 305.476562 79.144531 L 305.484375 79.140625 L 305.53125 79.109375 L 305.585938 79.066406 L 305.628906 79.039062 L 305.714844 78.972656 L 305.769531 78.933594 L 305.882812 78.851562 L 305.949219 78.804688 L 306.082031 78.707031 L 306.160156 78.65625 L 306.3125 78.542969 L 306.394531 78.484375 L 306.742188 78.238281 L 306.925781 78.105469 L 307.238281 77.882812 L 307.472656 77.714844 L 307.605469 77.617188 L 307.875 77.425781 L 308.015625 77.324219 L 308.308594 77.113281 L 308.457031 77.003906 L 309.074219 76.558594 L 309.378906 76.339844 L 309.683594 76.117188 L 309.832031 76.011719 L 310.121094 75.800781 L 310.257812 75.703125 L 310.476562 75.542969 L 310.636719 75.425781 L 310.722656 75.363281 L 311.085938 75.101562 L 311.289062 74.953125 L 311.703125 74.652344 L 312.382812 74.160156 L 312.621094 73.988281 L 313.597656 73.28125 L 314.089844 72.921875 L 314.578125 72.566406 L 315.292969 72.050781 L 315.515625 71.890625 L 316.675781 71.050781 L 317.402344 70.523438 L 317.746094 70.273438 L 318.414062 69.789062 L 318.730469 69.558594 L 319.347656 69.109375 L 319.640625 68.898438 L 320.214844 68.480469 L 320.488281 68.28125 L 321.027344 67.890625 L 321.28125 67.703125 L 321.785156 67.335938 L 322.027344 67.160156 L 322.507812 66.8125 L 322.738281 66.640625 L 322.960938 66.480469 L 323.136719 66.351562 L 323.234375 66.28125 L 323.433594 66.136719 L 323.542969 66.058594 L 323.761719 65.898438 L 323.878906 65.816406 L 324.351562 65.476562 L 325.066406 64.960938 L 325.285156 64.804688 L 325.90625 64.355469 L 326.089844 64.214844 L 326.175781 64.148438 L 326.339844 64.023438 L 326.414062 63.96875 L 326.609375 63.8125 L 326.71875 63.726562 L 326.757812 63.691406 L 326.832031 63.625 L 326.851562 63.605469 L 326.886719 63.566406 L 326.886719 63.558594 L 326.871094 63.503906 L 326.851562 63.429688 L 326.832031 63.378906 L 326.796875 63.269531 L 326.769531 63.199219 L 326.71875 63.054688 L 326.6875 62.972656 L 326.625 62.796875 L 326.585938 62.699219 L 326.511719 62.5 L 326.472656 62.390625 L 326.300781 61.941406 L 326.207031 61.703125 L 325.902344 60.921875 L 325.6875 60.363281 L 325.582031 60.089844 L 325.371094 59.550781 L 325.277344 59.3125 L 325.1875 59.078125 L 325.144531 58.972656 L 325.066406 58.769531 L 325.03125 58.683594 L 324.914062 58.382812 L 324.824219 58.148438 L 324.773438 58.019531 L 324.667969 57.75 L 324.613281 57.601562 L 324.496094 57.304688 L 324.433594 57.148438 L 324.183594 56.511719 L 324.054688 56.1875 L 323.804688 55.542969 L 323.6875 55.242188 L 323.191406 53.980469 L 322.871094 53.167969 L 322.71875 52.78125 L 322.421875 52.019531 L 322.277344 51.65625 L 321.996094 50.941406 L 321.863281 50.601562 L 321.605469 49.9375 L 321.480469 49.625 L 321.242188 49.011719 L 321.128906 48.726562 L 320.910156 48.167969 L 320.808594 47.910156 L 320.613281 47.40625 L 320.523438 47.175781 L 320.179688 46.300781 L 319.964844 45.761719 L 319.867188 45.515625 L 319.679688 45.035156 L 319.59375 44.824219 L 319.429688 44.414062 L 319.359375 44.234375 L 319.222656 43.898438 L 319.167969 43.761719 L 319.113281 43.628906 L 319.089844 43.570312 L 319.042969 43.457031 L 319.019531 43.40625 L 318.984375 43.316406 L 318.96875 43.277344 L 318.9375 43.210938 L 318.925781 43.183594 L 318.882812 43.097656 L 318.878906 43.09375 M 322.042969 42.773438 L 322.027344 42.78125 L 321.976562 42.804688 L 321.921875 42.832031 L 321.757812 42.921875 L 321.671875 42.972656 L 321.464844 43.09375 L 321.359375 43.160156 L 321.132812 43.296875 L 321.023438 43.367188 L 320.808594 43.503906 L 320.703125 43.570312 L 320.523438 43.691406 L 320.484375 43.71875 L 320.410156 43.769531 L 320.378906 43.792969 L 320.324219 43.832031 L 320.300781 43.847656 L 320.269531 43.875 L 320.25 43.902344 L 320.25 43.90625 L 320.269531 43.980469 L 320.285156 44.023438 L 320.335938 44.164062 L 320.367188 44.242188 L 320.441406 44.441406 L 320.480469 44.550781 L 320.578125 44.804688 L 320.628906 44.9375 L 320.804688 45.394531 L 320.9375 45.734375 L 321.003906 45.910156 L 321.152344 46.28125 L 321.378906 46.859375 L 321.425781 46.976562 L 321.535156 47.253906 L 321.59375 47.398438 L 321.71875 47.71875 L 321.785156 47.886719 L 321.925781 48.242188 L 321.996094 48.425781 L 322.144531 48.804688 L 322.296875 49.1875 L 322.605469 49.976562 L 322.679688 50.167969 L 322.828125 50.546875 L 323.042969 51.089844 L 323.175781 51.4375 L 323.472656 52.191406 L 323.621094 52.570312 L 323.914062 53.320312 L 323.984375 53.503906 L 324.121094 53.851562 L 324.1875 54.023438 L 324.3125 54.339844 L 324.375 54.496094 L 324.480469 54.769531 L 324.621094 55.125 L 324.640625 55.175781 L 324.6875 55.296875 L 324.710938 55.359375 L 324.769531 55.5 L 324.824219 55.644531 L 324.960938 55.992188 L 325.03125 56.171875 L 325.191406 56.578125 L 325.273438 56.789062 L 325.449219 57.242188 L 325.539062 57.472656 L 325.730469 57.957031 L 325.824219 58.203125 L 326.023438 58.707031 L 326.613281 60.222656 L 326.710938 60.472656 L 326.898438 60.949219 L 326.992188 61.183594 L 327.167969 61.632812 L 327.257812 61.847656 L 327.417969 62.253906 L 327.5 62.449219 L 327.644531 62.804688 L 327.710938 62.972656 L 327.835938 63.261719 L 327.890625 63.398438 L 327.984375 63.617188 L 328.007812 63.667969 L 328.042969 63.753906 L 328.0625 63.789062 L 328.089844 63.851562 L 328.125 63.921875 L 328.144531 63.953125 L 328.152344 63.960938 L 328.199219 63.992188 L 328.226562 64.007812 L 328.308594 64.050781 L 328.355469 64.074219 L 328.46875 64.128906 L 328.527344 64.160156 L 328.664062 64.226562 L 328.808594 64.292969 L 329.148438 64.449219 L 329.324219 64.53125 L 329.695312 64.699219 L 329.882812 64.78125 L 330.25 64.941406 L 330.425781 65.019531 L 330.742188 65.152344 L 330.816406 65.179688 L 330.945312 65.234375 L 331.007812 65.257812 L 331.113281 65.296875 L 331.160156 65.316406 L 331.230469 65.339844 L 331.296875 65.355469 L 331.324219 65.359375 L 331.367188 65.339844 L 331.386719 65.328125 L 331.398438 65.292969 L 331.398438 65.285156 L 331.386719 65.25 L 331.382812 65.226562 L 331.359375 65.15625 L 331.347656 65.117188 L 331.300781 64.964844 L 331.257812 64.839844 L 331.214844 64.707031 L 331.109375 64.386719 L 330.925781 63.847656 L 330.878906 63.699219 L 330.757812 63.367188 L 330.695312 63.195312 L 330.554688 62.816406 L 330.484375 62.617188 L 330.324219 62.191406 L 330.238281 61.972656 L 330.058594 61.5 L 329.964844 61.257812 L 329.761719 60.746094 L 329.660156 60.484375 L 329.4375 59.933594 L 329.324219 59.648438 L 329.089844 59.058594 L 328.964844 58.761719 L 328.710938 58.132812 L 328.582031 57.816406 L 328.3125 57.15625 L 328.171875 56.824219 L 327.886719 56.132812 L 327.742188 55.78125 L 327.441406 55.0625 L 327.289062 54.699219 L 326.976562 53.949219 L 326.816406 53.574219 L 326.488281 52.800781 L 326.324219 52.410156 L 325.984375 51.617188 L 325.816406 51.214844 L 325.464844 50.398438 L 324.929688 49.152344 L 324.789062 48.832031 L 324.53125 48.234375 L 324.40625 47.941406 L 324.171875 47.402344 L 324.058594 47.136719 L 323.847656 46.652344 L 323.746094 46.417969 L 323.558594 45.984375 L 323.464844 45.773438 L 323.300781 45.394531 L 323.21875 45.207031 L 323.070312 44.875 L 323 44.714844 L 322.875 44.425781 L 322.703125 44.039062 L 322.648438 43.917969 L 322.554688 43.710938 L 322.511719 43.613281 L 322.429688 43.441406 L 322.394531 43.359375 L 322.328125 43.222656 L 322.296875 43.15625 L 322.246094 43.050781 L 322.183594 42.925781 L 322.164062 42.890625 L 322.132812 42.835938 L 322.121094 42.816406 L 322.097656 42.785156 L 322.074219 42.765625 L 322.070312 42.765625 M 287 42.71875 L 286.964844 42.742188 L 286.945312 42.757812 L 286.910156 42.8125 L 286.855469 42.925781 L 286.847656 42.941406 L 286.816406 43.015625 L 286.796875 43.054688 L 286.746094 43.171875 L 286.71875 43.234375 L 286.652344 43.386719 L 286.617188 43.46875 L 286.539062 43.652344 L 286.496094 43.75 L 286.402344 43.960938 L 286.359375 44.070312 L 286.257812 44.300781 L 285.933594 45.042969 L 285.621094 45.757812 L 285.019531 47.144531 L 284.722656 47.832031 L 284.152344 49.160156 L 283.867188 49.820312 L 283.328125 51.085938 L 283.058594 51.710938 L 282.546875 52.914062 L 282.296875 53.507812 L 281.820312 54.640625 L 281.585938 55.195312 L 281.144531 56.257812 L 281.035156 56.515625 L 280.824219 57.023438 L 280.722656 57.273438 L 280.523438 57.757812 L 280.421875 58 L 280.230469 58.464844 L 280.136719 58.695312 L 279.953125 59.144531 L 279.867188 59.363281 L 279.695312 59.789062 L 279.609375 60 L 279.445312 60.402344 L 279.367188 60.601562 L 279.214844 60.984375 L 279.140625 61.171875 L 278.929688 61.710938 L 278.800781 62.046875 L 278.734375 62.210938 L 278.617188 62.527344 L 278.554688 62.679688 L 278.445312 62.972656 L 278.394531 63.113281 L 278.296875 63.378906 L 278.246094 63.511719 L 278.160156 63.753906 L 278.117188 63.871094 L 278.042969 64.085938 L 278.007812 64.191406 L 277.941406 64.382812 L 277.914062 64.476562 L 277.859375 64.644531 L 277.835938 64.722656 L 277.796875 64.863281 L 277.777344 64.929688 L 277.75 65.042969 L 277.734375 65.09375 L 277.71875 65.179688 L 277.710938 65.277344 L 277.710938 65.292969 L 277.71875 65.316406 L 277.726562 65.328125 L 277.753906 65.335938 L 277.773438 65.335938 L 277.832031 65.328125 L 277.867188 65.320312 L 277.96875 65.285156 L 278.027344 65.265625 L 278.179688 65.203125 L 278.261719 65.171875 L 278.480469 65.082031 L 278.539062 65.054688 L 278.667969 65 L 278.734375 64.972656 L 278.886719 64.90625 L 278.960938 64.875 L 279.132812 64.800781 L 279.21875 64.761719 L 279.410156 64.679688 L 279.597656 64.601562 L 279.941406 64.449219 L 280.109375 64.375 L 280.394531 64.25 L 280.460938 64.21875 L 280.574219 64.167969 L 280.628906 64.144531 L 280.71875 64.101562 L 280.761719 64.085938 L 280.820312 64.054688 L 280.871094 64.03125 L 280.882812 64.023438 L 280.921875 63.980469 L 280.941406 63.953125 L 281.011719 63.8125 L 281.050781 63.730469 L 281.070312 63.683594 L 281.117188 63.574219 L 281.144531 63.515625 L 281.203125 63.375 L 281.234375 63.300781 L 281.304688 63.125 L 281.34375 63.035156 L 281.429688 62.820312 L 281.476562 62.710938 L 281.578125 62.453125 L 281.632812 62.320312 L 281.75 62.015625 L 281.8125 61.859375 L 281.953125 61.503906 L 282.023438 61.324219 L 282.183594 60.914062 L 282.265625 60.703125 L 282.449219 60.238281 L 282.542969 59.996094 L 282.75 59.46875 L 283.089844 58.601562 L 283.160156 58.421875 L 283.308594 58.039062 L 283.386719 57.84375 L 283.542969 57.441406 L 283.703125 57.03125 L 284.027344 56.203125 L 284.109375 56 L 284.265625 55.601562 L 284.339844 55.40625 L 284.484375 55.039062 L 284.554688 54.859375 L 284.683594 54.53125 L 284.855469 54.097656 L 284.882812 54.03125 L 284.941406 53.882812 L 284.972656 53.804688 L 285.039062 53.632812 L 285.074219 53.542969 L 285.148438 53.347656 L 285.1875 53.25 L 285.269531 53.039062 L 285.355469 52.820312 L 285.546875 52.339844 L 285.644531 52.089844 L 285.851562 51.558594 L 285.957031 51.289062 L 286.179688 50.722656 L 286.292969 50.4375 L 286.519531 49.855469 L 287.199219 48.125 L 287.308594 47.847656 L 287.519531 47.304688 L 287.625 47.039062 L 287.820312 46.539062 L 287.917969 46.292969 L 288.097656 45.839844 L 288.183594 45.617188 L 288.335938 45.222656 L 288.410156 45.035156 L 288.539062 44.714844 L 288.566406 44.636719 L 288.621094 44.5 L 288.648438 44.4375 L 288.691406 44.324219 L 288.714844 44.269531 L 288.75 44.175781 L 288.765625 44.132812 L 288.792969 44.066406 L 288.804688 44.039062 L 288.820312 43.996094 L 288.832031 43.964844 L 288.835938 43.957031 L 288.800781 43.914062 L 288.777344 43.890625 L 288.691406 43.820312 L 288.644531 43.78125 L 288.519531 43.6875 L 288.453125 43.636719 L 288.292969 43.523438 L 288.210938 43.464844 L 288.023438 43.335938 L 287.929688 43.273438 L 287.722656 43.136719 L 287.066406 42.726562 L 287.050781 42.714844 L 287.015625 42.714844 Z M 287 42.71875 " fill-opacity="1" fill-rule="nonzero"/><path fill="#f00b0a" d="M 302.15625 21.1875 L 302.214844 21.195312 L 302.328125 21.226562 L 302.382812 21.246094 L 302.488281 21.296875 L 302.589844 21.351562 L 302.757812 21.503906 L 302.835938 21.585938 L 302.945312 21.777344 L 302.964844 21.828125 L 302.996094 21.933594 L 303.011719 22.089844 L 303.011719 22.109375 L 303.003906 22.152344 L 302.996094 22.175781 L 302.960938 22.238281 L 302.9375 22.277344 L 302.859375 22.378906 L 302.839844 22.40625 L 302.78125 22.472656 L 302.753906 22.507812 L 302.679688 22.589844 L 302.644531 22.632812 L 302.554688 22.734375 L 302.507812 22.785156 L 302.398438 22.902344 L 302.339844 22.964844 L 302.140625 23.175781 L 301.90625 23.421875 L 301.726562 23.609375 L 301.632812 23.707031 L 301.425781 23.921875 L 301.316406 24.03125 L 301.082031 24.273438 L 300.957031 24.398438 L 300.691406 24.671875 L 300.550781 24.8125 L 300.25 25.121094 L 300.09375 25.277344 L 299.757812 25.617188 L 299.585938 25.792969 L 299.210938 26.171875 L 299.019531 26.363281 L 298.605469 26.78125 L 298.394531 26.996094 L 297.9375 27.453125 L 297.707031 27.6875 L 296.953125 28.441406 L 296.414062 28.988281 L 295.546875 29.855469 L 295.246094 30.160156 L 294.605469 30.796875 L 294.28125 31.125 L 293.589844 31.816406 L 293.242188 32.167969 L 292.496094 32.910156 L 292.121094 33.289062 L 289.628906 35.78125 L 288.71875 36.695312 L 288.011719 37.402344 L 287.773438 37.644531 L 287.28125 38.132812 L 286.527344 38.886719 L 285.753906 39.664062 L 284.289062 41.128906 L 283.816406 41.605469 L 281.613281 43.808594 L 281.195312 44.230469 L 280.394531 45.027344 L 280.003906 45.421875 L 278.886719 46.539062 L 278.1875 47.242188 L 276.871094 48.558594 L 276.265625 49.167969 L 275.40625 50.027344 L 275.132812 50.304688 L 274.613281 50.828125 L 274.359375 51.082031 L 273.878906 51.566406 L 273.203125 52.242188 L 272.988281 52.460938 L 272.585938 52.867188 L 272.390625 53.066406 L 272.023438 53.4375 L 271.84375 53.617188 L 271.507812 53.957031 L 271.347656 54.121094 L 271.042969 54.429688 L 270.898438 54.578125 L 270.625 54.851562 L 270.496094 54.988281 L 270.25 55.238281 L 270.132812 55.355469 L 269.917969 55.578125 L 269.8125 55.6875 L 269.53125 55.980469 L 269.363281 56.152344 L 269.28125 56.238281 L 269.136719 56.390625 L 269.066406 56.464844 L 268.941406 56.597656 L 268.882812 56.664062 L 268.777344 56.78125 L 268.726562 56.835938 L 268.636719 56.933594 L 268.59375 56.984375 L 268.515625 57.066406 L 268.445312 57.148438 L 268.339844 57.277344 L 268.292969 57.339844 L 268.226562 57.433594 L 268.152344 57.550781 L 268.085938 57.667969 L 267.972656 57.890625 L 267.914062 58.003906 L 267.816406 58.214844 L 267.722656 58.429688 L 267.582031 58.835938 L 267.519531 59.035156 L 267.4375 59.445312 L 267.371094 60.09375 L 267.359375 60.273438 L 267.367188 60.621094 L 267.375 60.792969 L 267.417969 61.128906 L 267.441406 61.296875 L 267.515625 61.621094 L 267.558594 61.78125 L 267.671875 62.101562 L 267.734375 62.257812 L 267.882812 62.570312 L 267.960938 62.726562 L 268.148438 63.035156 L 268.246094 63.191406 L 268.472656 63.5 L 268.859375 63.964844 L 268.910156 64.023438 L 269.0625 64.179688 L 269.144531 64.261719 L 269.355469 64.464844 L 269.464844 64.570312 L 269.734375 64.816406 L 269.875 64.945312 L 270.199219 65.238281 L 270.367188 65.386719 L 270.746094 65.71875 L 270.941406 65.890625 L 271.371094 66.265625 L 271.589844 66.457031 L 272.070312 66.871094 L 272.316406 67.082031 L 272.847656 67.53125 L 273.117188 67.761719 L 273.695312 68.25 L 273.988281 68.496094 L 274.609375 69.019531 L 274.925781 69.28125 L 275.589844 69.839844 L 275.925781 70.121094 L 276.632812 70.707031 L 276.992188 71.003906 L 277.738281 71.621094 L 278.117188 71.933594 L 278.898438 72.578125 L 279.296875 72.902344 L 280.117188 73.574219 L 281.386719 74.613281 L 281.660156 74.835938 L 282.222656 75.296875 L 282.503906 75.523438 L 283.039062 75.964844 L 283.171875 76.070312 L 283.414062 76.265625 L 283.53125 76.363281 L 283.746094 76.539062 L 283.847656 76.621094 L 284.023438 76.765625 L 284.242188 76.941406 L 284.300781 76.992188 L 284.445312 77.109375 L 284.519531 77.167969 L 284.777344 77.378906 L 284.964844 77.53125 L 285.0625 77.609375 L 285.46875 77.9375 L 285.890625 78.277344 L 286.492188 78.765625 L 286.585938 78.839844 L 286.800781 79.015625 L 286.914062 79.105469 L 287.160156 79.304688 L 287.285156 79.402344 L 287.550781 79.617188 L 287.683594 79.726562 L 287.960938 79.949219 L 288.242188 80.175781 L 288.800781 80.625 L 288.933594 80.734375 L 289.199219 80.949219 L 289.570312 81.246094 L 289.625 81.292969 L 289.777344 81.414062 L 289.855469 81.476562 L 290.046875 81.628906 L 290.144531 81.710938 L 290.375 81.894531 L 290.492188 81.988281 L 290.757812 82.199219 L 290.890625 82.308594 L 291.1875 82.546875 L 291.339844 82.667969 L 291.664062 82.929688 L 291.828125 83.0625 L 292.179688 83.339844 L 292.355469 83.484375 L 292.730469 83.785156 L 292.921875 83.9375 L 293.316406 84.253906 L 293.515625 84.414062 L 293.925781 84.742188 L 294.34375 85.078125 L 295.21875 85.777344 L 295.660156 86.132812 L 296.566406 86.859375 L 297.945312 87.957031 L 298.128906 88.109375 L 298.488281 88.390625 L 298.660156 88.53125 L 299 88.804688 L 299.164062 88.9375 L 299.484375 89.191406 L 299.640625 89.316406 L 299.941406 89.554688 L 300.085938 89.671875 L 300.367188 89.894531 L 300.507812 90.007812 L 300.769531 90.21875 L 300.902344 90.320312 L 301.148438 90.519531 L 301.269531 90.613281 L 301.5 90.796875 L 301.726562 90.980469 L 302.136719 91.300781 L 302.332031 91.457031 L 302.683594 91.730469 L 302.851562 91.863281 L 303.148438 92.09375 L 303.289062 92.207031 L 303.535156 92.398438 L 303.65625 92.488281 L 303.859375 92.640625 L 303.953125 92.714844 L 304.117188 92.835938 L 304.195312 92.890625 L 304.324219 92.980469 L 304.382812 93.023438 L 304.480469 93.089844 L 304.527344 93.117188 L 304.597656 93.15625 L 304.628906 93.175781 L 304.679688 93.195312 L 304.703125 93.207031 L 304.734375 93.210938 L 304.769531 93.203125 L 304.78125 93.195312 L 304.835938 93.152344 L 304.871094 93.125 L 304.972656 93.050781 L 305.03125 93.007812 L 305.171875 92.894531 L 305.25 92.835938 L 305.429688 92.695312 L 305.527344 92.617188 L 305.746094 92.445312 L 305.859375 92.355469 L 306.113281 92.15625 L 306.246094 92.050781 L 306.535156 91.824219 L 306.683594 91.703125 L 307 91.453125 L 307.164062 91.320312 L 307.511719 91.042969 L 307.691406 90.902344 L 308.066406 90.605469 L 308.257812 90.453125 L 308.65625 90.132812 L 308.859375 89.972656 L 309.28125 89.632812 L 309.496094 89.460938 L 309.941406 89.105469 L 310.164062 88.925781 L 310.628906 88.558594 L 311.097656 88.183594 L 312.082031 87.394531 L 312.578125 86.996094 L 313.613281 86.167969 L 314.132812 85.75 L 315.199219 84.894531 L 316.269531 84.035156 L 318.441406 82.285156 L 318.980469 81.851562 L 320.046875 80.992188 L 320.578125 80.566406 L 321.613281 79.730469 L 322.125 79.316406 L 323.109375 78.519531 L 323.355469 78.324219 L 323.828125 77.941406 L 324.519531 77.378906 L 324.816406 77.140625 L 325.390625 76.671875 L 325.675781 76.441406 L 326.234375 75.988281 L 326.511719 75.765625 L 327.046875 75.328125 L 327.3125 75.109375 L 327.832031 74.691406 L 328.085938 74.480469 L 328.585938 74.074219 L 328.832031 73.875 L 329.308594 73.480469 L 329.546875 73.289062 L 330.007812 72.910156 L 330.238281 72.722656 L 330.679688 72.359375 L 330.898438 72.179688 L 331.324219 71.832031 L 331.535156 71.65625 L 331.941406 71.324219 L 332.144531 71.15625 L 332.535156 70.835938 L 332.726562 70.675781 L 333.101562 70.363281 L 333.472656 70.058594 L 334.164062 69.484375 L 334.5 69.203125 L 335.128906 68.675781 L 335.4375 68.417969 L 336.003906 67.933594 L 336.28125 67.699219 L 336.792969 67.261719 L 337.042969 67.050781 L 337.5 66.652344 L 337.71875 66.457031 L 338.125 66.101562 L 338.324219 65.925781 L 338.679688 65.605469 L 338.851562 65.449219 L 339.164062 65.164062 L 339.3125 65.023438 L 339.582031 64.769531 L 339.9375 64.417969 L 340.046875 64.308594 L 340.238281 64.113281 L 340.328125 64.019531 L 340.488281 63.851562 L 340.5625 63.773438 L 340.691406 63.628906 L 340.753906 63.558594 L 340.863281 63.429688 L 340.964844 63.304688 L 341.125 63.078125 L 341.335938 62.714844 L 341.4375 62.515625 L 341.613281 62.109375 L 341.691406 61.90625 L 341.816406 61.503906 L 341.875 61.300781 L 341.949219 60.917969 L 341.992188 60.375 L 341.992188 60.253906 L 341.96875 59.988281 L 341.953125 59.851562 L 341.902344 59.570312 L 341.875 59.425781 L 341.800781 59.128906 L 341.757812 58.984375 L 341.660156 58.683594 L 341.609375 58.535156 L 341.492188 58.238281 L 341.429688 58.09375 L 341.292969 57.808594 L 341.222656 57.667969 L 341.074219 57.402344 L 340.832031 57.03125 L 340.828125 57.023438 L 340.792969 56.988281 L 340.773438 56.964844 L 340.714844 56.898438 L 340.679688 56.863281 L 340.589844 56.769531 L 340.542969 56.71875 L 340.425781 56.601562 L 340.363281 56.535156 L 340.21875 56.386719 L 340.144531 56.3125 L 339.972656 56.136719 L 339.886719 56.046875 L 339.691406 55.847656 L 339.589844 55.746094 L 339.371094 55.523438 L 339.257812 55.40625 L 339.011719 55.160156 L 338.890625 55.035156 L 338.621094 54.765625 L 338.484375 54.625 L 338.199219 54.332031 L 337.738281 53.871094 L 337.582031 53.710938 L 337.25 53.375 L 337.082031 53.207031 L 336.730469 52.851562 L 336.550781 52.671875 L 336.179688 52.296875 L 335.992188 52.109375 L 335.601562 51.714844 L 335.40625 51.515625 L 335 51.105469 L 334.152344 50.257812 L 333.714844 49.8125 L 333.492188 49.589844 L 333.035156 49.128906 L 332.574219 48.667969 L 331.609375 47.699219 L 331.121094 47.207031 L 330.101562 46.1875 L 329.585938 45.667969 L 328.523438 44.601562 L 327.984375 44.0625 L 326.878906 42.953125 L 326.324219 42.394531 L 323.4375 39.507812 L 306.332031 22.386719 L 306.332031 21.980469 L 306.34375 21.871094 L 306.351562 21.816406 L 306.378906 21.730469 L 306.394531 21.6875 L 306.449219 21.605469 L 306.558594 21.480469 L 306.628906 21.410156 L 306.796875 21.304688 L 306.882812 21.257812 L 307.058594 21.203125 L 307.148438 21.1875 L 307.3125 21.191406 L 307.53125 21.273438 L 307.53125 21.277344 L 307.5625 21.304688 L 307.582031 21.320312 L 307.671875 21.410156 L 307.761719 21.496094 L 307.808594 21.542969 L 307.925781 21.65625 L 307.984375 21.71875 L 308.128906 21.859375 L 308.207031 21.933594 L 308.761719 22.488281 L 308.984375 22.707031 L 309.34375 23.066406 L 309.472656 23.191406 L 309.742188 23.457031 L 309.878906 23.597656 L 310.171875 23.886719 L 310.324219 24.035156 L 310.796875 24.507812 L 311.136719 24.84375 L 311.304688 25.015625 L 311.664062 25.371094 L 311.84375 25.550781 L 312.222656 25.925781 L 312.414062 26.117188 L 312.8125 26.511719 L 313.011719 26.714844 L 313.425781 27.128906 L 313.636719 27.335938 L 314.738281 28.4375 L 314.96875 28.660156 L 315.433594 29.125 L 315.667969 29.363281 L 316.148438 29.839844 L 316.390625 30.082031 L 316.890625 30.578125 L 318.429688 32.117188 L 318.957031 32.640625 L 320.046875 33.730469 L 320.597656 34.277344 L 321.726562 35.410156 L 322.300781 35.980469 L 323.46875 37.148438 L 325.257812 38.933594 L 329.125 42.800781 L 330.179688 43.851562 L 330.847656 44.527344 L 331.179688 44.855469 L 332.746094 46.421875 L 333.042969 46.722656 L 333.90625 47.585938 L 334.453125 48.136719 L 335.5 49.183594 L 335.988281 49.675781 L 336.226562 49.917969 L 337.351562 51.042969 L 337.5625 51.257812 L 337.96875 51.667969 L 338.167969 51.867188 L 338.546875 52.25 L 338.734375 52.4375 L 339.089844 52.796875 L 339.261719 52.972656 L 339.59375 53.304688 L 339.753906 53.46875 L 340.058594 53.777344 L 340.207031 53.925781 L 340.488281 54.210938 L 340.625 54.347656 L 340.878906 54.609375 L 341.003906 54.738281 L 341.238281 54.976562 L 341.351562 55.09375 L 341.5625 55.308594 L 341.667969 55.414062 L 341.855469 55.609375 L 341.949219 55.703125 L 342.117188 55.878906 L 342.199219 55.964844 L 342.34375 56.117188 L 342.417969 56.191406 L 342.542969 56.328125 L 342.605469 56.390625 L 342.714844 56.507812 L 342.765625 56.5625 L 342.855469 56.660156 L 342.898438 56.703125 L 342.972656 56.785156 L 343.003906 56.820312 L 343.058594 56.882812 L 343.082031 56.914062 L 343.121094 56.957031 L 343.15625 57.007812 L 343.253906 57.152344 L 343.421875 57.441406 L 343.507812 57.585938 L 343.652344 57.875 L 343.722656 58.019531 L 343.847656 58.304688 L 343.90625 58.449219 L 344.007812 58.734375 L 344.054688 58.875 L 344.128906 59.160156 L 344.164062 59.300781 L 344.214844 59.582031 L 344.238281 59.722656 L 344.265625 60.003906 L 344.277344 60.144531 L 344.28125 60.421875 L 344.28125 60.5625 L 344.261719 60.835938 L 344.25 60.972656 L 344.207031 61.25 L 344.179688 61.386719 L 344.113281 61.65625 L 344.078125 61.789062 L 343.988281 62.058594 L 343.9375 62.191406 L 343.824219 62.457031 L 343.761719 62.589844 L 343.621094 62.851562 L 343.550781 62.980469 L 343.386719 63.238281 L 343.117188 63.625 L 343.074219 63.679688 L 342.976562 63.800781 L 342.921875 63.863281 L 342.800781 64 L 342.738281 64.070312 L 342.59375 64.222656 L 342.519531 64.300781 L 342.265625 64.554688 L 342.074219 64.742188 L 341.972656 64.839844 L 341.753906 65.046875 L 341.640625 65.152344 L 341.390625 65.378906 L 341.261719 65.496094 L 340.984375 65.746094 L 340.839844 65.875 L 340.53125 66.148438 L 340.371094 66.289062 L 340.03125 66.585938 L 339.851562 66.738281 L 339.476562 67.0625 L 339.28125 67.230469 L 338.871094 67.582031 L 338.660156 67.761719 L 338.207031 68.144531 L 337.976562 68.335938 L 337.488281 68.75 L 337.238281 68.957031 L 336.707031 69.402344 L 335.863281 70.105469 L 335.238281 70.625 L 333.96875 71.675781 L 333.644531 71.941406 L 332.992188 72.480469 L 332.664062 72.75 L 331.992188 73.300781 L 331.65625 73.578125 L 330.960938 74.148438 L 330.609375 74.433594 L 329.886719 75.023438 L 329.523438 75.320312 L 328.769531 75.933594 L 328.386719 76.246094 L 327.597656 76.886719 L 327.199219 77.210938 L 326.367188 77.882812 L 325.945312 78.222656 L 325.070312 78.933594 L 324.625 79.292969 L 323.699219 80.039062 L 323.230469 80.417969 L 322.25 81.207031 L 321.75 81.605469 L 320.710938 82.441406 L 320.183594 82.867188 L 319.078125 83.753906 L 318.800781 83.976562 L 318.226562 84.4375 L 317.9375 84.667969 L 317.347656 85.140625 L 317.050781 85.378906 L 316.445312 85.867188 L 315.511719 86.613281 L 315.277344 86.800781 L 314.820312 87.167969 L 314.59375 87.347656 L 314.152344 87.699219 L 313.71875 88.050781 L 312.894531 88.707031 L 312.492188 89.03125 L 311.730469 89.636719 L 311.359375 89.933594 L 310.664062 90.488281 L 310.324219 90.757812 L 309.6875 91.261719 L 309.378906 91.507812 L 308.804688 91.964844 L 308.527344 92.183594 L 308.011719 92.589844 L 307.761719 92.789062 L 307.308594 93.148438 L 307.085938 93.320312 L 306.6875 93.632812 L 306.496094 93.78125 L 306.152344 94.046875 L 305.992188 94.175781 L 305.703125 94.398438 L 305.566406 94.5 L 305.332031 94.679688 L 305.222656 94.761719 L 305.042969 94.894531 L 304.960938 94.957031 L 304.832031 95.046875 L 304.773438 95.085938 L 304.695312 95.136719 L 304.632812 95.167969 L 304.628906 95.164062 L 304.589844 95.144531 L 304.566406 95.128906 L 304.492188 95.078125 L 304.453125 95.050781 L 304.351562 94.980469 L 304.296875 94.941406 L 304.171875 94.847656 L 304.105469 94.796875 L 303.957031 94.6875 L 303.878906 94.628906 L 303.714844 94.503906 L 303.542969 94.375 L 303.171875 94.085938 L 303.085938 94.019531 L 302.871094 93.851562 L 302.761719 93.765625 L 302.5 93.558594 L 302.359375 93.449219 L 302.054688 93.207031 L 301.890625 93.078125 L 301.539062 92.800781 L 301.359375 92.65625 L 300.964844 92.34375 L 300.765625 92.183594 L 300.335938 91.84375 L 300.117188 91.667969 L 299.652344 91.300781 L 299.417969 91.109375 L 298.921875 90.71875 L 298.671875 90.515625 L 298.152344 90.101562 L 297.886719 89.890625 L 297.34375 89.457031 L 297.070312 89.234375 L 296.503906 88.785156 L 296.21875 88.554688 L 295.636719 88.089844 L 293.839844 86.652344 L 293.230469 86.164062 L 291.996094 85.171875 L 291.375 84.675781 L 290.140625 83.683594 L 289.527344 83.191406 L 288.320312 82.21875 L 287.71875 81.738281 L 286.566406 80.808594 L 286.28125 80.582031 L 285.726562 80.132812 L 285.453125 79.914062 L 284.921875 79.484375 L 284.660156 79.273438 L 284.152344 78.863281 L 283.902344 78.664062 L 283.425781 78.277344 L 283.191406 78.089844 L 282.746094 77.730469 L 282.527344 77.554688 L 282.121094 77.222656 L 281.921875 77.0625 L 281.550781 76.761719 L 281.371094 76.613281 L 281.042969 76.347656 L 280.882812 76.21875 L 280.601562 75.988281 L 280.234375 75.6875 L 280.1875 75.648438 L 280.058594 75.542969 L 279.988281 75.484375 L 279.820312 75.347656 L 279.730469 75.273438 L 279.53125 75.109375 L 279.425781 75.023438 L 279.199219 74.839844 L 278.964844 74.648438 L 278.449219 74.226562 L 277.664062 73.585938 L 277.558594 73.496094 L 277.328125 73.308594 L 277.210938 73.214844 L 276.964844 73.011719 L 276.714844 72.804688 L 276.167969 72.355469 L 275.890625 72.128906 L 275.300781 71.640625 L 275.003906 71.390625 L 274.382812 70.878906 L 273.761719 70.363281 L 272.503906 69.316406 L 272.191406 69.054688 L 271.585938 68.546875 L 270.714844 67.816406 L 270.371094 67.53125 L 269.742188 66.992188 L 269.433594 66.726562 L 268.871094 66.230469 L 268.597656 65.988281 L 268.101562 65.535156 L 267.863281 65.316406 L 267.433594 64.910156 L 267.230469 64.710938 L 266.875 64.351562 L 266.789062 64.265625 L 266.632812 64.097656 L 266.558594 64.019531 L 266.417969 63.863281 L 266.351562 63.789062 L 266.230469 63.644531 L 266.171875 63.574219 L 266.070312 63.445312 L 266.019531 63.382812 L 265.933594 63.261719 L 265.828125 63.097656 L 265.753906 62.980469 L 265.621094 62.726562 L 265.558594 62.597656 L 265.441406 62.332031 L 265.328125 62.0625 L 265.167969 61.515625 L 265.128906 61.378906 L 265.074219 61.109375 L 265.050781 60.976562 L 265.019531 60.714844 L 265.007812 60.585938 L 265 60.34375 L 265.019531 60 L 265.035156 59.859375 L 265.085938 59.574219 L 265.113281 59.429688 L 265.1875 59.140625 L 265.265625 58.847656 L 265.480469 58.265625 L 265.597656 57.976562 L 265.875 57.433594 L 265.949219 57.300781 L 266.101562 57.054688 L 266.347656 56.703125 L 266.355469 56.695312 L 266.386719 56.65625 L 266.476562 56.566406 L 266.511719 56.527344 L 266.605469 56.429688 L 266.65625 56.378906 L 266.777344 56.253906 L 266.84375 56.183594 L 266.992188 56.03125 L 267.070312 55.953125 L 267.246094 55.773438 L 267.339844 55.679688 L 267.542969 55.472656 L 267.644531 55.367188 L 267.875 55.136719 L 267.988281 55.019531 L 268.242188 54.761719 L 268.648438 54.355469 L 268.785156 54.210938 L 269.238281 53.757812 L 269.558594 53.433594 L 269.722656 53.269531 L 270.0625 52.925781 L 270.238281 52.75 L 270.597656 52.386719 L 270.78125 52.199219 L 271.359375 51.621094 L 271.757812 51.214844 L 272.59375 50.378906 L 273.03125 49.9375 L 273.25 49.714844 L 273.707031 49.261719 L 273.933594 49.03125 L 274.402344 48.558594 L 275.871094 47.089844 L 276.371094 46.585938 L 277.417969 45.535156 L 279.042969 43.910156 L 279.59375 43.355469 L 280.730469 42.222656 L 281.300781 41.648438 L 282.472656 40.476562 L 284.265625 38.6875 L 301.816406 21.140625 M 304.753906 27.972656 L 304.867188 27.984375 L 305.085938 28.019531 L 305.199219 28.042969 L 305.414062 28.101562 L 305.523438 28.132812 L 305.738281 28.214844 L 305.84375 28.261719 L 306.054688 28.367188 L 306.15625 28.421875 L 306.359375 28.550781 L 306.457031 28.621094 L 306.648438 28.773438 L 306.925781 29.027344 L 307.089844 29.191406 L 307.367188 29.550781 L 307.5 29.734375 L 307.714844 30.125 L 307.8125 30.324219 L 307.960938 30.746094 L 308.023438 30.957031 L 308.105469 31.390625 L 308.136719 31.609375 L 308.152344 32.054688 L 308.148438 32.273438 L 308.09375 32.71875 L 308.054688 32.9375 L 307.925781 33.375 L 307.65625 34.003906 L 307.613281 34.085938 L 307.507812 34.25 L 307.453125 34.332031 L 307.332031 34.5 L 307.203125 34.664062 L 306.910156 34.972656 L 306.757812 35.121094 L 306.4375 35.378906 L 306.355469 35.4375 L 306.195312 35.542969 L 305.957031 35.675781 L 305.464844 35.910156 L 305.464844 38.09375 L 305.46875 38.1875 L 305.46875 38.441406 L 305.472656 38.585938 L 305.472656 38.65625 L 305.476562 38.777344 L 305.476562 38.832031 L 305.480469 38.914062 L 305.484375 38.953125 L 305.488281 39 L 305.492188 39.027344 L 305.496094 39.023438 L 305.515625 38.996094 L 305.53125 38.980469 L 305.570312 38.921875 L 305.597656 38.894531 L 305.65625 38.8125 L 305.6875 38.769531 L 305.765625 38.667969 L 305.804688 38.613281 L 305.894531 38.492188 L 305.941406 38.429688 L 306.042969 38.296875 L 306.375 37.847656 L 306.652344 37.476562 L 307.175781 36.789062 L 307.304688 36.621094 L 307.554688 36.300781 L 307.679688 36.144531 L 307.917969 35.84375 L 308.035156 35.695312 L 308.265625 35.417969 L 308.375 35.277344 L 308.59375 35.019531 L 308.699219 34.894531 L 308.902344 34.65625 L 309.003906 34.539062 L 309.195312 34.324219 L 309.289062 34.222656 L 309.464844 34.03125 L 309.550781 33.9375 L 309.714844 33.769531 L 309.792969 33.6875 L 310.015625 33.476562 L 310.144531 33.363281 L 310.210938 33.304688 L 310.324219 33.214844 L 310.378906 33.175781 L 310.476562 33.109375 L 310.523438 33.082031 L 310.605469 33.046875 L 310.703125 33.023438 L 310.71875 33.023438 L 310.757812 33.039062 L 310.78125 33.050781 L 310.835938 33.085938 L 310.898438 33.125 L 311.054688 33.257812 L 311.136719 33.328125 L 311.328125 33.511719 L 311.425781 33.605469 L 311.636719 33.820312 L 311.851562 34.042969 L 312.269531 34.523438 L 312.367188 34.640625 L 312.539062 34.859375 L 312.753906 35.160156 L 312.878906 35.351562 L 313.09375 35.730469 L 313.195312 35.917969 L 313.363281 36.285156 L 313.4375 36.46875 L 313.554688 36.820312 L 313.605469 36.996094 L 313.671875 37.335938 L 313.699219 37.503906 L 313.71875 37.832031 L 313.71875 37.996094 L 313.6875 38.3125 L 313.664062 38.46875 L 313.582031 38.769531 L 313.402344 39.207031 L 313.359375 39.292969 L 313.230469 39.496094 L 313.191406 39.550781 L 313.0625 39.726562 L 312.960938 39.859375 L 312.90625 39.925781 L 312.785156 40.074219 L 312.722656 40.148438 L 312.582031 40.3125 L 312.507812 40.398438 L 312.347656 40.582031 L 312.265625 40.671875 L 312.082031 40.875 L 311.988281 40.976562 L 311.78125 41.199219 L 311.675781 41.3125 L 311.445312 41.554688 L 311.328125 41.675781 L 311.074219 41.941406 L 310.941406 42.078125 L 310.664062 42.367188 L 310.519531 42.515625 L 310.210938 42.828125 L 310.054688 42.988281 L 309.542969 43.5 L 309.179688 43.871094 L 308.339844 44.710938 L 307.863281 45.183594 L 307.632812 45.417969 L 307.214844 45.84375 L 307.011719 46.046875 L 306.648438 46.417969 L 306.472656 46.597656 L 306.171875 46.917969 L 306.023438 47.066406 L 305.78125 47.328125 L 305.722656 47.390625 L 305.617188 47.503906 L 305.566406 47.558594 L 305.480469 47.660156 L 305.4375 47.707031 L 305.363281 47.789062 L 305.332031 47.828125 L 305.273438 47.898438 L 305.246094 47.933594 L 305.207031 47.984375 L 305.160156 48.050781 L 305.089844 48.167969 L 304.914062 48.429688 L 304.871094 48.496094 L 304.789062 48.609375 L 304.683594 48.742188 L 304.472656 49.003906 L 304.285156 48.753906 L 304.222656 48.660156 L 304.191406 48.609375 L 304.117188 48.488281 L 303.890625 48.085938 L 303.863281 48.039062 L 303.792969 47.933594 L 303.757812 47.878906 L 303.652344 47.746094 L 303.597656 47.675781 L 303.457031 47.507812 L 303.378906 47.421875 L 303.1875 47.214844 L 303.085938 47.105469 L 302.839844 46.847656 L 302.773438 46.78125 L 302.632812 46.636719 L 302.558594 46.5625 L 302.402344 46.398438 L 301.203125 45.199219 L 300.988281 44.988281 L 300.578125 44.582031 L 299.808594 43.8125 L 299.457031 43.457031 L 299.285156 43.28125 L 298.960938 42.953125 L 298.800781 42.789062 L 298.5 42.484375 L 298.355469 42.332031 L 298.082031 42.050781 L 297.949219 41.914062 L 297.699219 41.652344 L 297.578125 41.523438 L 297.355469 41.285156 L 297.246094 41.167969 L 297.046875 40.949219 L 296.949219 40.84375 L 296.769531 40.648438 L 296.683594 40.550781 L 296.527344 40.371094 L 296.453125 40.285156 L 296.316406 40.125 L 296.253906 40.046875 L 296.136719 39.902344 L 296.082031 39.835938 L 295.988281 39.710938 L 295.945312 39.648438 L 295.867188 39.539062 L 295.773438 39.390625 L 295.671875 39.21875 L 295.523438 38.859375 L 295.457031 38.683594 L 295.382812 38.308594 L 295.355469 38.121094 L 295.351562 37.730469 L 295.429688 37.121094 L 295.445312 37.046875 L 295.492188 36.878906 L 295.519531 36.792969 L 295.59375 36.597656 L 295.671875 36.398438 L 295.871094 35.960938 L 295.976562 35.742188 L 296.207031 35.324219 L 296.265625 35.226562 L 296.382812 35.042969 L 296.550781 34.800781 L 296.613281 34.714844 L 296.769531 34.53125 L 296.851562 34.433594 L 297.03125 34.238281 L 297.214844 34.039062 L 297.605469 33.660156 L 297.699219 33.570312 L 297.882812 33.40625 L 297.96875 33.332031 L 298.121094 33.207031 L 298.195312 33.152344 L 298.3125 33.074219 L 298.339844 33.058594 L 298.382812 33.039062 L 298.429688 33.023438 L 298.449219 33.023438 L 298.503906 33.042969 L 298.535156 33.054688 L 298.605469 33.097656 L 298.640625 33.121094 L 298.726562 33.183594 L 298.773438 33.21875 L 298.871094 33.304688 L 298.925781 33.347656 L 299.039062 33.453125 L 299.097656 33.507812 L 299.222656 33.636719 L 299.289062 33.699219 L 299.425781 33.84375 L 299.5 33.917969 L 299.648438 34.082031 L 299.800781 34.25 L 300.140625 34.632812 L 300.3125 34.835938 L 300.683594 35.28125 L 300.875 35.511719 L 301.277344 36.015625 L 301.90625 36.820312 L 302.007812 36.957031 L 302.234375 37.242188 L 302.351562 37.386719 L 302.582031 37.664062 L 302.695312 37.800781 L 302.898438 38.039062 L 302.949219 38.097656 L 303.035156 38.195312 L 303.148438 38.320312 L 303.640625 38.835938 L 303.644531 37.40625 L 303.644531 35.972656 L 303.109375 35.75 L 303.023438 35.710938 L 302.835938 35.613281 L 302.746094 35.558594 L 302.558594 35.433594 L 302.464844 35.367188 L 302.28125 35.21875 L 302.1875 35.140625 L 302.011719 34.972656 L 301.925781 34.890625 L 301.679688 34.621094 L 301.535156 34.433594 L 301.464844 34.34375 L 301.34375 34.15625 L 301.191406 33.875 L 301.09375 33.664062 L 300.945312 33.238281 L 300.878906 33.027344 L 300.796875 32.601562 L 300.765625 32.386719 L 300.746094 31.964844 L 300.746094 31.757812 L 300.792969 31.34375 L 300.824219 31.136719 L 300.933594 30.738281 L 300.996094 30.539062 L 301.167969 30.160156 L 301.261719 29.96875 L 301.496094 29.613281 L 301.917969 29.105469 L 302.007812 29.011719 L 302.195312 28.839844 L 302.289062 28.761719 L 302.484375 28.613281 L 302.585938 28.542969 L 302.789062 28.417969 L 302.890625 28.359375 L 303.101562 28.257812 L 303.210938 28.210938 L 303.425781 28.132812 L 303.53125 28.09375 L 303.753906 28.039062 L 303.863281 28.015625 L 304.085938 27.984375 L 304.195312 27.972656 L 304.421875 27.960938 L 304.53125 27.960938 Z M 304.753906 27.972656 " fill-opacity="1" fill-rule="nonzero"/><path fill="#f8f03b" d="M 302.773438 78.585938 L 302.390625 78.308594 L 301.660156 77.777344 L 301.296875 77.511719 L 300.609375 77.011719 L 300.269531 76.765625 L 299.625 76.296875 L 299.308594 76.066406 L 298.703125 75.628906 L 298.40625 75.414062 L 297.84375 75.003906 L 297.570312 74.804688 L 297.046875 74.425781 L 296.792969 74.242188 L 296.308594 73.890625 L 296.074219 73.722656 L 295.632812 73.398438 L 295.414062 73.242188 L 295.011719 72.949219 L 294.8125 72.804688 L 294.445312 72.539062 L 294.269531 72.410156 L 293.9375 72.171875 L 293.777344 72.054688 L 293.484375 71.839844 L 293.339844 71.738281 L 293.082031 71.550781 L 292.957031 71.460938 L 292.730469 71.296875 L 292.621094 71.21875 L 292.429688 71.078125 L 292.179688 70.898438 L 291.980469 70.753906 L 291.566406 70.457031 L 291.367188 70.3125 L 290.984375 70.035156 L 290.894531 69.96875 L 290.722656 69.84375 L 290.640625 69.785156 L 290.496094 69.675781 L 290.425781 69.625 L 290.304688 69.539062 L 290.164062 69.433594 L 290.132812 69.414062 L 290.054688 69.355469 L 290.011719 69.324219 L 289.90625 69.246094 L 289.847656 69.203125 L 289.710938 69.105469 L 289.640625 69.054688 L 289.476562 68.933594 L 289.394531 68.871094 L 289.203125 68.734375 L 289.101562 68.660156 L 288.878906 68.5 L 288.765625 68.417969 L 288.515625 68.234375 L 288.386719 68.140625 L 288.105469 67.9375 L 287.960938 67.832031 L 287.652344 67.609375 L 287.492188 67.492188 L 287.152344 67.246094 L 286.976562 67.117188 L 286.601562 66.847656 L 286.414062 66.710938 L 286.007812 66.417969 L 285.800781 66.269531 L 285.367188 65.953125 L 285.144531 65.792969 L 284.675781 65.453125 L 284.4375 65.277344 L 283.9375 64.917969 L 283.148438 64.34375 L 283.007812 64.242188 L 282.753906 64.058594 L 282.636719 63.972656 L 282.433594 63.824219 L 282.390625 63.789062 L 282.3125 63.730469 L 282.273438 63.707031 L 282.21875 63.660156 L 282.191406 63.640625 L 282.160156 63.617188 L 282.136719 63.597656 L 282.136719 63.59375 L 282.152344 63.546875 L 282.199219 63.421875 L 282.21875 63.367188 L 282.273438 63.222656 L 282.304688 63.144531 L 282.378906 62.949219 L 282.417969 62.84375 L 282.511719 62.601562 L 282.5625 62.472656 L 282.675781 62.183594 L 282.734375 62.03125 L 282.871094 61.691406 L 283.089844 61.132812 L 283.179688 60.902344 L 283.359375 60.445312 L 283.449219 60.21875 L 283.617188 59.796875 L 283.65625 59.695312 L 283.726562 59.511719 L 283.761719 59.421875 L 283.855469 59.1875 L 283.902344 59.0625 L 283.960938 58.917969 L 283.972656 58.882812 L 284.015625 58.777344 L 284.035156 58.71875 L 284.089844 58.582031 L 284.117188 58.511719 L 284.183594 58.34375 L 284.214844 58.261719 L 284.363281 57.886719 L 284.53125 57.464844 L 284.785156 56.824219 L 284.824219 56.71875 L 284.964844 56.367188 L 285.0625 56.117188 L 285.164062 55.859375 L 285.371094 55.328125 L 285.476562 55.0625 L 285.675781 54.558594 L 285.722656 54.433594 L 285.808594 54.207031 L 285.929688 53.898438 L 285.96875 53.804688 L 286.054688 53.585938 L 286.097656 53.472656 L 286.195312 53.222656 L 286.292969 52.96875 L 286.511719 52.410156 L 286.625 52.128906 L 286.847656 51.558594 L 286.902344 51.421875 L 287.007812 51.152344 L 287.15625 50.773438 L 287.203125 50.65625 L 287.304688 50.394531 L 287.355469 50.265625 L 287.464844 49.988281 L 287.574219 49.707031 L 287.800781 49.128906 L 287.914062 48.84375 L 288.125 48.300781 L 288.175781 48.171875 L 288.269531 47.933594 L 288.398438 47.613281 L 288.480469 47.402344 L 288.636719 47.003906 L 288.710938 46.808594 L 288.855469 46.449219 L 288.921875 46.269531 L 289.050781 45.941406 L 289.113281 45.78125 L 289.230469 45.488281 L 289.289062 45.34375 L 289.390625 45.078125 L 289.441406 44.949219 L 289.535156 44.714844 L 289.582031 44.601562 L 289.664062 44.394531 L 289.703125 44.296875 L 289.773438 44.117188 L 289.808594 44.03125 L 289.871094 43.875 L 289.902344 43.800781 L 289.953125 43.671875 L 289.980469 43.613281 L 290.023438 43.503906 L 290.042969 43.457031 L 290.082031 43.371094 L 290.097656 43.332031 L 290.125 43.265625 L 290.140625 43.238281 L 290.160156 43.191406 L 290.199219 43.121094 L 290.203125 43.117188 L 290.234375 43.125 L 290.253906 43.128906 L 290.316406 43.15625 L 290.347656 43.171875 L 290.4375 43.21875 L 290.480469 43.246094 L 290.589844 43.304688 L 290.644531 43.339844 L 290.769531 43.414062 L 290.835938 43.457031 L 290.976562 43.542969 L 291.4375 43.84375 L 291.480469 43.871094 L 291.585938 43.945312 L 291.644531 43.980469 L 291.78125 44.074219 L 291.855469 44.125 L 292.027344 44.238281 L 292.117188 44.296875 L 292.316406 44.429688 L 292.417969 44.496094 L 292.644531 44.648438 L 292.761719 44.722656 L 293.007812 44.890625 L 293.136719 44.976562 L 293.40625 45.152344 L 293.546875 45.246094 L 293.835938 45.4375 L 294.132812 45.632812 L 294.773438 46.058594 L 295.097656 46.273438 L 295.785156 46.730469 L 296.136719 46.960938 L 296.855469 47.4375 L 297.953125 48.164062 L 298.320312 48.40625 L 299.027344 48.875 L 299.375 49.105469 L 300.039062 49.542969 L 300.363281 49.757812 L 300.960938 50.15625 L 301.105469 50.253906 L 301.382812 50.4375 L 301.519531 50.527344 L 301.773438 50.695312 L 301.898438 50.777344 L 302.246094 51.011719 L 302.453125 51.148438 L 302.554688 51.214844 L 302.738281 51.335938 L 302.824219 51.394531 L 302.980469 51.496094 L 303.050781 51.546875 L 303.175781 51.628906 L 303.234375 51.667969 L 303.324219 51.726562 L 303.367188 51.757812 L 303.472656 51.828125 L 303.652344 51.960938 L 303.675781 65.582031 L 303.675781 66.96875 L 303.679688 67.425781 L 303.679688 75.195312 L 303.675781 75.503906 L 303.675781 76.863281 L 303.671875 77.109375 L 303.671875 77.757812 L 303.667969 78.121094 L 303.667969 78.292969 L 303.664062 78.582031 L 303.664062 78.765625 L 303.660156 78.820312 L 303.660156 78.964844 L 303.65625 79.039062 L 303.65625 79.148438 L 303.652344 79.175781 L 303.652344 79.195312 L 303.648438 79.195312 L 303.613281 79.171875 L 303.566406 79.144531 L 303.519531 79.113281 L 303.375 79.011719 L 303.101562 78.820312 L 303 78.75 M 305.386719 65.589844 L 305.386719 51.960938 L 308.804688 49.699219 L 309.078125 49.515625 L 309.605469 49.167969 L 309.863281 48.996094 L 310.359375 48.667969 L 310.605469 48.503906 L 311.074219 48.195312 L 311.304688 48.042969 L 311.75 47.75 L 311.96875 47.605469 L 312.382812 47.328125 L 312.589844 47.191406 L 313.175781 46.804688 L 313.542969 46.5625 L 313.722656 46.441406 L 314.066406 46.214844 L 314.234375 46.105469 L 314.714844 45.789062 L 315.011719 45.589844 L 315.160156 45.496094 L 315.4375 45.3125 L 315.574219 45.222656 L 315.828125 45.050781 L 315.957031 44.96875 L 316.191406 44.8125 L 316.308594 44.738281 L 316.527344 44.59375 L 316.632812 44.523438 L 316.832031 44.394531 L 316.929688 44.328125 L 317.289062 44.09375 L 317.59375 43.894531 L 317.738281 43.800781 L 317.984375 43.640625 L 318.101562 43.566406 L 318.289062 43.441406 L 318.378906 43.386719 L 318.523438 43.296875 L 318.585938 43.253906 L 318.6875 43.195312 L 318.734375 43.167969 L 318.796875 43.128906 L 318.824219 43.113281 L 318.859375 43.101562 L 318.878906 43.09375 L 318.882812 43.097656 L 318.925781 43.183594 L 318.9375 43.210938 L 318.96875 43.277344 L 318.984375 43.316406 L 319.019531 43.40625 L 319.042969 43.457031 L 319.089844 43.570312 L 319.113281 43.628906 L 319.167969 43.761719 L 319.222656 43.898438 L 319.359375 44.234375 L 319.429688 44.414062 L 319.59375 44.824219 L 319.679688 45.035156 L 319.867188 45.515625 L 319.964844 45.761719 L 320.179688 46.300781 L 320.523438 47.175781 L 320.613281 47.40625 L 320.808594 47.910156 L 320.910156 48.167969 L 321.128906 48.726562 L 321.242188 49.011719 L 321.480469 49.625 L 321.605469 49.9375 L 321.863281 50.601562 L 321.996094 50.941406 L 322.277344 51.65625 L 322.421875 52.019531 L 322.71875 52.78125 L 322.871094 53.167969 L 323.191406 53.980469 L 323.6875 55.242188 L 323.804688 55.542969 L 324.054688 56.1875 L 324.183594 56.511719 L 324.433594 57.148438 L 324.496094 57.304688 L 324.613281 57.601562 L 324.667969 57.75 L 324.773438 58.019531 L 324.824219 58.148438 L 324.914062 58.382812 L 325.03125 58.683594 L 325.066406 58.769531 L 325.144531 58.972656 L 325.1875 59.078125 L 325.277344 59.3125 L 325.371094 59.550781 L 325.582031 60.089844 L 325.6875 60.363281 L 325.902344 60.921875 L 326.207031 61.703125 L 326.300781 61.941406 L 326.472656 62.390625 L 326.511719 62.5 L 326.585938 62.699219 L 326.625 62.796875 L 326.6875 62.972656 L 326.71875 63.054688 L 326.769531 63.199219 L 326.796875 63.269531 L 326.832031 63.378906 L 326.851562 63.429688 L 326.871094 63.503906 L 326.886719 63.558594 L 326.886719 63.566406 L 326.851562 63.605469 L 326.832031 63.625 L 326.757812 63.691406 L 326.71875 63.726562 L 326.609375 63.8125 L 326.414062 63.96875 L 326.339844 64.023438 L 326.175781 64.148438 L 326.089844 64.214844 L 325.90625 64.355469 L 325.285156 64.804688 L 325.066406 64.960938 L 324.351562 65.476562 L 323.878906 65.816406 L 323.761719 65.898438 L 323.542969 66.058594 L 323.433594 66.136719 L 323.234375 66.28125 L 323.136719 66.351562 L 322.960938 66.480469 L 322.738281 66.640625 L 322.507812 66.8125 L 322.027344 67.160156 L 321.785156 67.335938 L 321.28125 67.703125 L 321.027344 67.890625 L 320.488281 68.28125 L 320.214844 68.480469 L 319.640625 68.898438 L 319.347656 69.109375 L 318.730469 69.558594 L 318.414062 69.789062 L 317.746094 70.273438 L 317.402344 70.523438 L 316.675781 71.050781 L 315.515625 71.890625 L 315.292969 72.050781 L 314.578125 72.566406 L 314.089844 72.921875 L 313.597656 73.28125 L 312.621094 73.988281 L 312.382812 74.160156 L 311.703125 74.652344 L 311.289062 74.953125 L 311.085938 75.101562 L 310.722656 75.363281 L 310.636719 75.425781 L 310.476562 75.542969 L 310.257812 75.703125 L 310.121094 75.800781 L 309.832031 76.011719 L 309.683594 76.117188 L 309.378906 76.339844 L 309.074219 76.558594 L 308.457031 77.003906 L 308.308594 77.113281 L 308.015625 77.324219 L 307.875 77.425781 L 307.605469 77.617188 L 307.472656 77.714844 L 307.238281 77.882812 L 306.925781 78.105469 L 306.742188 78.238281 L 306.394531 78.484375 L 306.3125 78.542969 L 306.160156 78.65625 L 306.082031 78.707031 L 305.949219 78.804688 L 305.882812 78.851562 L 305.769531 78.933594 L 305.714844 78.972656 L 305.628906 79.039062 L 305.585938 79.066406 L 305.53125 79.109375 L 305.484375 79.140625 L 305.476562 79.144531 L 305.46875 79.121094 L 305.464844 79.101562 L 305.457031 79.023438 L 305.453125 78.980469 L 305.445312 78.847656 L 305.441406 78.773438 L 305.433594 78.582031 L 305.429688 78.476562 L 305.425781 78.21875 L 305.421875 78.082031 L 305.417969 77.753906 L 305.414062 77.578125 L 305.410156 77.171875 L 305.40625 76.960938 L 305.402344 76.472656 L 305.402344 75.9375 L 305.398438 75.644531 L 305.398438 75.179688 L 305.394531 75.019531 L 305.394531 73.960938 L 305.390625 73.570312 L 305.390625 72.085938 L 305.386719 71.621094 Z M 305.386719 65.589844 " fill-opacity="1" fill-rule="nonzero"/></svg>